<svg width="573" height="573" viewBox="0 0 573 573" fill="none" xmlns="http://www.w3.org/2000/svg">
<path fill-rule="evenodd" clip-rule="evenodd" d="M286.5 96.3926C265.797 96.3926 249.014 113.176 249.014 133.879H152.621C152.621 59.9395 212.561 0 286.5 0C360.44 0 420.379 59.9395 420.379 133.879C420.379 207.818 360.44 267.757 286.5 267.757V171.365C307.202 171.365 323.986 154.581 323.986 133.879C323.986 113.176 307.202 96.3926 286.5 96.3926ZM476.607 286.5C476.607 265.797 459.824 249.014 439.121 249.014V152.621C513.061 152.621 573 212.561 573 286.5C573 360.44 513.061 420.379 439.121 420.379C365.181 420.379 305.243 360.44 305.243 286.5H401.636C401.636 307.202 418.419 323.986 439.121 323.986C459.824 323.986 476.607 307.202 476.607 286.5ZM133.879 323.986C113.175 323.986 96.3926 307.202 96.3926 286.5C96.3926 265.797 113.175 249.014 133.879 249.014C154.581 249.014 171.364 265.797 171.364 286.5H267.757C267.757 212.561 207.818 152.621 133.879 152.621C59.9395 152.621 -6.10352e-05 212.561 -6.10352e-05 286.5C-6.10352e-05 360.44 59.9395 420.379 133.879 420.379V323.986ZM286.5 476.607C307.202 476.607 323.986 459.824 323.986 439.121H420.379C420.379 513.061 360.44 573 286.5 573C212.561 573 152.621 513.061 152.621 439.121C152.621 365.181 212.561 305.243 286.5 305.243V401.636C265.797 401.636 249.014 418.419 249.014 439.121C249.014 459.824 265.797 476.607 286.5 476.607Z" fill="url(#paint0_linear_1_584)" fill-opacity="0.4"/>
<defs>
<linearGradient id="paint0_linear_1_584" x1="286.5" y1="0" x2="286.5" y2="573" gradientUnits="userSpaceOnUse">
<stop stop-color="#C73575"/>
<stop offset="1" stop-color="#2C3868"/>
</linearGradient>
</defs>
</svg>
