<svg width="36" height="36" viewBox="0 0 36 36" fill="none" xmlns="http://www.w3.org/2000/svg">
<circle cx="18" cy="18" r="18" fill="#434B76"/>
<g clip-path="url(#clip0_1_1567)">
<path d="M26 18C26 13.5818 22.4182 10 18 10C13.5818 10 10 13.5818 10 18C10 21.7517 12.583 24.8998 16.0675 25.7645V20.4448H14.4179V18H16.0675V16.9466C16.0675 14.2237 17.2998 12.9616 19.9731 12.9616C20.48 12.9616 21.3546 13.0611 21.7123 13.1603V15.3763C21.5235 15.3565 21.1955 15.3466 20.7882 15.3466C19.4765 15.3466 18.9696 15.8435 18.9696 17.1354V18H21.5827L21.1338 20.4448H18.9696V25.9414C22.9309 25.463 26.0003 22.0902 26.0003 18H26Z" fill="white"/>
</g>
<defs>
<clipPath id="clip0_1_1567">
<rect width="16" height="16" fill="white" transform="translate(10 10)"/>
</clipPath>
</defs>
</svg>
