<svg width="3000" height="3333" viewBox="0 0 3000 3333" fill="none" xmlns="http://www.w3.org/2000/svg">
<g clip-path="url(#clip0_1_1147)">
<rect width="3000" height="3333" fill="#1C1C1C"/>
<g opacity="0.2">
<mask id="mask0_1_1147" style="mask-type:luminance" maskUnits="userSpaceOnUse" x="780" y="3058" width="1440" height="1020">
<path d="M2220 3058.1H780V4077.47H2220V3058.1Z" fill="white"/>
</mask>
<g mask="url(#mask0_1_1147)">
<path d="M2220 3058.1H780V4077.47H2220V3058.1Z" fill="#1C1C1C"/>
<path d="M1040.06 4266.7C972.401 4266.7 906.765 4253.3 844.972 4226.87C815.276 4214.17 786.63 4198.44 759.836 4180.14C733.297 4162.01 708.341 4141.19 685.665 4118.25C662.985 4095.32 642.397 4070.08 624.465 4043.25C606.363 4016.15 590.816 3987.18 578.253 3957.15C552.12 3894.66 538.867 3828.29 538.867 3759.86C538.867 3691.44 552.12 3625.07 578.253 3562.58C590.816 3532.55 606.36 3503.58 624.465 3476.48C642.393 3449.64 662.985 3424.4 685.665 3401.47C708.345 3378.54 733.301 3357.72 759.836 3339.58C786.63 3321.28 815.272 3305.55 844.972 3292.85C906.761 3266.42 972.397 3253.02 1040.06 3253.02C1107.72 3253.02 1173.35 3266.42 1235.14 3292.85C1264.84 3305.55 1293.49 3321.27 1320.28 3339.58C1346.82 3357.71 1371.78 3378.54 1394.45 3401.47C1417.13 3424.41 1437.72 3449.65 1455.65 3476.48C1473.75 3503.58 1489.3 3532.54 1501.86 3562.58C1527.99 3625.06 1541.25 3691.44 1541.25 3759.86C1541.25 3828.29 1527.99 3894.66 1501.86 3957.15C1489.3 3987.18 1473.75 4016.15 1455.65 4043.25C1437.72 4070.08 1417.13 4095.32 1394.45 4118.25C1371.77 4141.19 1346.82 4162.01 1320.28 4180.14C1293.49 4198.44 1264.84 4214.17 1235.14 4226.87C1173.36 4253.3 1107.72 4266.7 1040.06 4266.7ZM1040.06 3257.31C972.971 3257.31 907.89 3270.6 846.626 3296.81C817.181 3309.4 788.778 3324.99 762.213 3343.14C735.9 3361.12 711.153 3381.76 688.665 3404.51C666.176 3427.25 645.761 3452.27 627.982 3478.88C610.035 3505.75 594.618 3534.47 582.165 3564.25C556.252 3626.2 543.112 3692.02 543.112 3759.86C543.112 3827.71 556.252 3893.52 582.165 3955.48C594.618 3985.25 610.035 4013.98 627.982 4040.84C645.761 4067.45 666.176 4092.48 688.665 4115.22C711.153 4137.96 735.9 4158.61 762.213 4176.59C788.778 4194.74 817.181 4210.33 846.626 4222.92C907.89 4249.13 972.971 4262.41 1040.06 4262.41C1107.15 4262.41 1172.23 4249.13 1233.49 4222.92C1262.94 4210.33 1291.34 4194.74 1317.9 4176.59C1344.22 4158.61 1368.96 4137.96 1391.45 4115.22C1413.94 4092.48 1434.36 4067.45 1452.13 4040.84C1470.08 4013.98 1485.5 3985.25 1497.95 3955.48C1523.86 3893.52 1537 3827.71 1537 3759.86C1537 3692.02 1523.86 3626.2 1497.95 3564.25C1485.5 3534.47 1470.08 3505.75 1452.13 3478.88C1434.36 3452.27 1413.94 3427.25 1391.45 3404.51C1368.96 3381.76 1344.22 3361.12 1317.9 3343.14C1291.34 3324.99 1262.94 3309.4 1233.49 3296.81C1172.23 3270.6 1107.15 3257.31 1040.06 3257.31Z" fill="url(#paint0_linear_1_1147)"/>
<path d="M1742.44 3329.63C1696.14 3329.63 1651.23 3320.46 1608.95 3302.37C1568.11 3284.91 1531.44 3259.9 1499.94 3228.05C1468.45 3196.21 1443.72 3159.12 1426.45 3117.82C1408.57 3075.06 1399.5 3029.64 1399.5 2982.82C1399.5 2936 1408.57 2890.59 1426.45 2847.83C1443.72 2806.53 1468.45 2769.44 1499.94 2737.6C1531.44 2705.75 1568.11 2680.74 1608.95 2663.27C1651.23 2645.19 1696.14 2636.02 1742.44 2636.02C1788.73 2636.02 1833.64 2645.19 1875.93 2663.27C1916.76 2680.74 1953.44 2705.75 1984.93 2737.6C2016.42 2769.44 2041.15 2806.53 2058.42 2847.83C2076.31 2890.59 2085.38 2936 2085.38 2982.82C2085.38 3029.64 2076.31 3075.06 2058.42 3117.82C2041.15 3159.12 2016.42 3196.21 1984.93 3228.05C1953.44 3259.9 1916.76 3284.91 1875.93 3302.37C1833.64 3320.46 1788.73 3329.63 1742.44 3329.63ZM1742.44 2640.57C1696.75 2640.57 1652.43 2649.62 1610.7 2667.47C1570.4 2684.7 1534.21 2709.38 1503.13 2740.82C1472.04 2772.25 1447.64 2808.85 1430.6 2849.61C1412.95 2891.8 1404 2936.62 1404 2982.82C1404 3029.03 1412.95 3073.85 1430.6 3116.04C1447.64 3156.8 1472.04 3193.4 1503.13 3224.83C1534.21 3256.27 1570.4 3280.94 1610.7 3298.18C1652.43 3316.03 1696.75 3325.08 1742.44 3325.08C1788.13 3325.08 1832.45 3316.03 1874.17 3298.18C1914.47 3280.94 1950.67 3256.27 1981.75 3224.83C2012.83 3193.4 2037.23 3156.8 2054.28 3116.04C2071.93 3073.85 2080.88 3029.03 2080.88 2982.82C2080.88 2936.62 2071.93 2891.8 2054.28 2849.61C2037.23 2808.85 2012.83 2772.25 1981.75 2740.82C1950.66 2709.38 1914.47 2684.7 1874.17 2667.47C1832.45 2649.62 1788.13 2640.57 1742.44 2640.57Z" fill="url(#paint1_linear_1_1147)"/>
<path d="M961.875 3333.42C939.236 3333.42 917.955 3324.51 901.946 3308.32C885.938 3292.13 877.125 3270.61 877.125 3247.72C877.125 3224.82 885.941 3203.3 901.946 3187.11C917.955 3170.92 939.236 3162.01 961.875 3162.01C984.514 3162.01 1005.8 3170.93 1021.8 3187.11C1037.81 3203.3 1046.62 3224.82 1046.62 3247.72C1046.62 3270.61 1037.81 3292.13 1021.8 3308.32C1005.8 3324.51 984.514 3333.42 961.875 3333.42ZM961.875 3164.29C939.84 3164.29 919.121 3172.96 903.54 3188.72C887.959 3204.48 879.375 3225.43 879.375 3247.72C879.375 3270 887.955 3290.95 903.54 3306.71C919.121 3322.47 939.84 3331.15 961.875 3331.15C983.91 3331.15 1004.63 3322.47 1020.21 3306.71C1035.79 3290.95 1044.37 3270 1044.37 3247.72C1044.37 3225.43 1035.8 3204.48 1020.21 3188.72C1004.63 3172.97 983.91 3164.29 961.875 3164.29Z" fill="url(#paint2_linear_1_1147)"/>
<g opacity="0.7">
<path d="M1151.84 3085.74L1141 3096.7C1140.33 3097.38 1139.25 3097.38 1138.58 3096.7C1137.91 3096.03 1137.91 3094.93 1138.58 3094.26L1149.42 3083.29C1150.09 3082.62 1151.17 3082.62 1151.84 3083.29C1152.51 3083.97 1152.51 3085.06 1151.84 3085.74Z" fill="white"/>
<path d="M1151.84 3096.7C1151.17 3097.38 1150.09 3097.38 1149.42 3096.7L1138.58 3085.74C1137.91 3085.06 1137.91 3083.97 1138.58 3083.29C1139.25 3082.62 1140.33 3082.62 1141 3083.29L1151.84 3094.26C1152.51 3094.93 1152.51 3096.03 1151.84 3096.7Z" fill="white"/>
</g>
<g opacity="0.7">
<path d="M1540.96 3330.49H1533.29C1532.82 3330.49 1532.44 3330.11 1532.44 3329.63C1532.44 3329.15 1532.82 3328.76 1533.29 3328.76H1540.96C1541.43 3328.76 1541.81 3329.15 1541.81 3329.63C1541.81 3330.11 1541.43 3330.49 1540.96 3330.49Z" fill="white"/>
<path d="M1537.12 3334.37C1536.65 3334.37 1536.27 3333.98 1536.27 3333.5V3325.75C1536.27 3325.28 1536.65 3324.89 1537.12 3324.89C1537.59 3324.89 1537.98 3325.28 1537.98 3325.75V3333.5C1537.98 3333.98 1537.59 3334.37 1537.12 3334.37Z" fill="white"/>
</g>
<g opacity="0.7">
<path d="M2180.9 3121.15H2175.38C2175.04 3121.15 2174.77 3120.87 2174.77 3120.52C2174.77 3120.18 2175.04 3119.9 2175.38 3119.9H2180.9C2181.24 3119.9 2181.52 3120.18 2181.52 3120.52C2181.52 3120.87 2181.24 3121.15 2180.9 3121.15Z" fill="white"/>
<path d="M2178.14 3123.93C2177.8 3123.93 2177.52 3123.66 2177.52 3123.31V3117.73C2177.52 3117.38 2177.8 3117.11 2178.14 3117.11C2178.48 3117.11 2178.75 3117.38 2178.75 3117.73V3123.31C2178.75 3123.66 2178.48 3123.93 2178.14 3123.93Z" fill="white"/>
</g>
<path opacity="0.7" d="M1110.93 3312.37C1113 3312.37 1114.68 3310.68 1114.68 3308.58C1114.68 3306.49 1113 3304.79 1110.93 3304.79C1108.86 3304.79 1107.18 3306.49 1107.18 3308.58C1107.18 3310.68 1108.86 3312.37 1110.93 3312.37Z" fill="white"/>
<path opacity="0.7" d="M1473.55 3211.31C1475.11 3211.31 1476.37 3210.04 1476.37 3208.47C1476.37 3206.9 1475.11 3205.62 1473.55 3205.62C1472 3205.62 1470.74 3206.9 1470.74 3208.47C1470.74 3210.04 1472 3211.31 1473.55 3211.31Z" fill="#DF2171"/>
<path opacity="0.7" d="M1832.62 3219.65C1835.72 3219.65 1838.24 3217.11 1838.24 3213.97C1838.24 3210.82 1835.72 3208.28 1832.62 3208.28C1829.51 3208.28 1826.99 3210.82 1826.99 3213.97C1826.99 3217.11 1829.51 3219.65 1832.62 3219.65Z" fill="white"/>
<path opacity="0.7" d="M850.117 3215.67C852.706 3215.67 854.805 3213.55 854.805 3210.93C854.805 3208.31 852.706 3206.19 850.117 3206.19C847.528 3206.19 845.43 3208.31 845.43 3210.93C845.43 3213.55 847.528 3215.67 850.117 3215.67Z" fill="#DF2171"/>
</g>
</g>
<g opacity="0.2">
<mask id="mask1_1_1147" style="mask-type:luminance" maskUnits="userSpaceOnUse" x="780" y="0" width="1440" height="1020">
<path d="M2220 0H780V1019.37H2220V0Z" fill="white"/>
</mask>
<g mask="url(#mask1_1_1147)">
<path d="M2220 0H780V1019.37H2220V0Z" fill="#1C1C1C"/>
<path d="M2261.85 912.112C2238.02 920.975 2213.19 924.85 2188.05 923.637C2163.76 922.465 2140.2 916.614 2118.03 906.253C2095.86 895.889 2076.19 881.535 2059.57 863.586C2042.36 845.004 2029.19 823.361 2020.43 799.269C2011.67 775.173 2007.84 750.06 2009.04 724.633C2010.19 700.07 2015.98 676.251 2026.23 653.827C2036.47 631.407 2050.67 611.516 2068.42 594.709C2086.79 577.306 2108.19 563.991 2132.02 555.129C2155.84 546.266 2180.68 542.39 2205.82 543.604C2230.11 544.776 2253.66 550.627 2275.84 560.988C2298.01 571.352 2317.68 585.706 2334.3 603.655C2351.5 622.237 2364.67 643.88 2373.43 667.972C2382.2 692.068 2386.03 717.181 2384.83 742.608C2383.67 767.171 2377.88 790.99 2367.64 813.414C2357.39 835.834 2343.2 855.725 2325.45 872.532C2307.07 889.935 2285.67 903.25 2261.85 912.112ZM2133.57 559.395C2110.31 568.045 2089.42 581.045 2071.49 598.027C2054.16 614.433 2040.31 633.845 2030.3 655.734C2020.3 677.62 2014.66 700.874 2013.52 724.845C2012.35 749.666 2016.1 774.175 2024.65 797.695C2033.2 821.215 2046.06 842.338 2062.85 860.476C2079.07 877.997 2098.27 892.005 2119.91 902.123C2141.56 912.241 2164.55 917.948 2188.26 919.094C2212.8 920.277 2237.04 916.492 2260.29 907.842C2283.55 899.192 2304.44 886.196 2322.37 869.21C2339.7 852.805 2353.55 833.392 2363.56 811.503C2373.56 789.617 2379.2 766.363 2380.34 742.392C2381.51 717.571 2377.76 693.062 2369.21 669.542C2360.66 646.022 2347.81 624.899 2331.01 606.761C2314.79 589.24 2295.59 575.232 2273.95 565.114C2252.3 554.996 2229.31 549.289 2205.61 548.143C2181.06 546.96 2156.83 550.745 2133.57 559.395Z" fill="url(#paint3_linear_1_1147)"/>
<path d="M1040.06 1208.6C972.401 1208.6 906.765 1195.2 844.972 1168.77C815.276 1156.07 786.63 1140.34 759.836 1122.04C733.297 1103.91 708.341 1083.08 685.665 1060.15C662.985 1037.22 642.397 1011.98 624.465 985.144C606.363 958.048 590.816 929.083 578.253 899.048C552.12 836.562 538.867 770.186 538.867 701.761C538.867 633.337 552.12 566.964 578.253 504.475C590.816 474.444 606.36 445.475 624.465 418.379C642.393 391.541 662.985 366.303 685.665 343.371C708.345 320.439 733.301 299.616 759.836 281.481C786.63 263.175 815.272 247.453 844.972 234.748C906.761 208.32 972.397 194.918 1040.06 194.918C1107.72 194.918 1173.35 208.32 1235.14 234.748C1264.84 247.453 1293.49 263.172 1320.28 281.481C1346.82 299.612 1371.78 320.435 1394.45 343.371C1417.13 366.307 1437.72 391.544 1455.65 418.379C1473.75 445.475 1489.3 474.44 1501.86 504.475C1527.99 566.961 1541.25 633.337 1541.25 701.761C1541.25 770.186 1527.99 836.558 1501.86 899.048C1489.3 929.079 1473.75 958.048 1455.65 985.144C1437.72 1011.98 1417.13 1037.22 1394.45 1060.15C1371.77 1083.09 1346.82 1103.91 1320.28 1122.04C1293.49 1140.34 1264.84 1156.07 1235.14 1168.77C1173.36 1195.2 1107.72 1208.6 1040.06 1208.6ZM1040.06 199.211C972.971 199.211 907.89 212.499 846.626 238.704C817.181 251.298 788.778 266.888 762.213 285.038C735.9 303.017 711.153 323.662 688.665 346.405C666.176 369.147 645.761 394.173 627.982 420.783C610.035 447.648 594.618 476.37 582.165 506.147C556.252 568.102 543.112 633.917 543.112 701.761C543.112 769.605 556.252 835.421 582.165 897.375C594.618 927.152 610.035 955.875 627.982 982.74C645.761 1009.35 666.176 1034.38 688.665 1057.12C711.153 1079.86 735.9 1100.51 762.213 1118.48C788.778 1136.63 817.181 1152.22 846.626 1164.82C907.89 1191.02 972.971 1204.31 1040.06 1204.31C1107.15 1204.31 1172.23 1191.02 1233.49 1164.82C1262.94 1152.22 1291.34 1136.63 1317.9 1118.48C1344.22 1100.51 1368.96 1079.86 1391.45 1057.12C1413.94 1034.38 1434.36 1009.35 1452.13 982.74C1470.08 955.875 1485.5 927.152 1497.95 897.375C1523.86 835.421 1537 769.605 1537 701.761C1537 633.917 1523.86 568.102 1497.95 506.147C1485.5 476.37 1470.08 447.648 1452.13 420.783C1434.36 394.173 1413.94 369.147 1391.45 346.405C1368.96 323.662 1344.22 303.017 1317.9 285.038C1291.34 266.888 1262.94 251.298 1233.49 238.704C1172.23 212.499 1107.15 199.211 1040.06 199.211Z" fill="url(#paint4_linear_1_1147)"/>
<path d="M1742.44 271.528C1696.14 271.528 1651.23 262.358 1608.95 244.272C1568.11 226.805 1531.44 201.799 1499.94 169.951C1468.45 138.104 1443.72 101.015 1426.45 59.7169C1408.57 16.9589 1399.5 -28.4576 1399.5 -75.2772C1399.5 -122.097 1408.57 -167.513 1426.45 -210.271C1443.72 -251.569 1468.45 -288.658 1499.94 -320.506C1531.44 -352.353 1568.11 -377.36 1608.95 -394.827C1651.23 -412.912 1696.14 -422.082 1742.44 -422.082C1788.73 -422.082 1833.64 -412.912 1875.93 -394.827C1916.76 -377.36 1953.44 -352.353 1984.93 -320.506C2016.42 -288.658 2041.15 -251.569 2058.42 -210.271C2076.31 -167.513 2085.38 -122.097 2085.38 -75.2772C2085.38 -28.4576 2076.31 16.9589 2058.42 59.7169C2041.15 101.015 2016.42 138.104 1984.93 169.951C1953.44 201.799 1916.76 226.805 1875.93 244.272C1833.64 262.358 1788.73 271.528 1742.44 271.528ZM1742.44 -417.531C1696.75 -417.531 1652.43 -408.483 1610.7 -390.636C1570.4 -373.397 1534.21 -348.72 1503.13 -317.286C1472.04 -285.852 1447.64 -249.252 1430.6 -208.497C1412.95 -166.303 1404 -121.482 1404 -75.2772C1404 -29.0719 1412.95 15.7491 1430.6 57.9422C1447.64 98.6979 1472.04 135.301 1503.13 166.732C1534.21 198.166 1570.4 222.842 1610.7 240.082C1652.43 257.929 1696.75 266.977 1742.44 266.977C1788.13 266.977 1832.45 257.929 1874.17 240.082C1914.47 222.842 1950.67 198.166 1981.75 166.732C2012.83 135.297 2037.23 98.6979 2054.28 57.9422C2071.93 15.7491 2080.88 -29.0719 2080.88 -75.2772C2080.88 -121.482 2071.93 -166.303 2054.28 -208.497C2037.23 -249.252 2012.83 -285.855 1981.75 -317.286C1950.66 -348.72 1914.47 -373.397 1874.17 -390.636C1832.45 -408.483 1788.13 -417.531 1742.44 -417.531Z" fill="url(#paint5_linear_1_1147)"/>
<path d="M961.875 275.32C939.236 275.32 917.955 266.404 901.946 250.219C885.938 234.029 877.125 212.508 877.125 189.614C877.125 166.72 885.941 145.199 901.946 129.009C917.955 112.82 939.236 103.908 961.875 103.908C984.514 103.908 1005.8 112.824 1021.8 129.009C1037.81 145.199 1046.62 166.72 1046.62 189.614C1046.62 212.508 1037.81 234.029 1021.8 250.219C1005.8 266.408 984.514 275.32 961.875 275.32ZM961.875 106.184C939.84 106.184 919.121 114.86 903.54 130.621C887.959 146.378 879.375 167.33 879.375 189.614C879.375 211.897 887.955 232.85 903.54 248.607C919.121 264.364 939.84 273.044 961.875 273.044C983.91 273.044 1004.63 264.368 1020.21 248.607C1035.79 232.85 1044.37 211.897 1044.37 189.614C1044.37 167.33 1035.8 146.378 1020.21 130.621C1004.63 114.864 983.91 106.184 961.875 106.184Z" fill="url(#paint6_linear_1_1147)"/>
<path d="M1806.92 733.808C1770.22 733.808 1740.36 703.61 1740.36 666.495C1740.36 629.38 1770.22 599.182 1806.92 599.182C1843.62 599.182 1873.48 629.38 1873.48 666.495C1873.48 703.61 1843.62 733.808 1806.92 733.808ZM1806.92 601.457C1771.46 601.457 1742.61 630.631 1742.61 666.495C1742.61 702.358 1771.46 731.533 1806.92 731.533C1842.39 731.533 1871.23 702.358 1871.23 666.495C1871.23 630.631 1842.39 601.457 1806.92 601.457Z" fill="url(#paint7_linear_1_1147)"/>
<g opacity="0.7">
<path d="M1820.16 423.955L1809.32 412.991C1808.65 412.316 1808.65 411.22 1809.32 410.545C1809.99 409.87 1811.07 409.87 1811.74 410.545L1822.58 421.509C1823.25 422.184 1823.25 423.28 1822.58 423.955C1821.91 424.63 1820.83 424.63 1820.16 423.955Z" fill="white"/>
<path d="M1809.32 423.955C1808.65 423.28 1808.65 422.184 1809.32 421.509L1820.16 410.545C1820.83 409.87 1821.91 409.87 1822.58 410.545C1823.25 411.22 1823.25 412.316 1822.58 412.991L1811.74 423.955C1811.07 424.63 1809.99 424.63 1809.32 423.955Z" fill="white"/>
</g>
<path d="M888.578 738.647L929.314 665.061H931.381L890.644 738.647H888.578Z" fill="url(#paint8_linear_1_1147)"/>
<path d="M867.203 738.647L907.939 665.061H910.006L869.269 738.647H867.203Z" fill="url(#paint9_linear_1_1147)"/>
<path d="M845.828 738.647L886.564 665.061H888.631L847.894 738.647H845.828Z" fill="url(#paint10_linear_1_1147)"/>
<path d="M824.453 738.647L865.189 665.061H867.256L826.519 738.647H824.453Z" fill="url(#paint11_linear_1_1147)"/>
<path d="M803.078 738.647L843.814 665.061H845.881L805.144 738.647H803.078Z" fill="url(#paint12_linear_1_1147)"/>
<path d="M781.703 738.647L822.439 665.061H824.506L783.769 738.647H781.703Z" fill="url(#paint13_linear_1_1147)"/>
<path d="M760.328 738.647L801.064 665.061H803.131L762.394 738.647H760.328Z" fill="url(#paint14_linear_1_1147)"/>
<path d="M738.953 738.647L779.689 665.061H781.756L741.019 738.647H738.953Z" fill="url(#paint15_linear_1_1147)"/>
<g opacity="0.7">
<path d="M1151.84 27.6379L1141 38.6013C1140.33 39.2764 1139.25 39.2764 1138.58 38.6013C1137.91 37.9263 1137.91 36.8304 1138.58 36.1553L1149.42 25.1918C1150.09 24.5168 1151.17 24.5168 1151.84 25.1918C1152.51 25.8668 1152.51 26.9628 1151.84 27.6379Z" fill="white"/>
<path d="M1151.84 38.6013C1151.17 39.2764 1150.09 39.2764 1149.42 38.6013L1138.58 27.6379C1137.91 26.9628 1137.91 25.8668 1138.58 25.1918C1139.25 24.5168 1140.33 24.5168 1141 25.1918L1151.84 36.1553C1152.51 36.8304 1152.51 37.9263 1151.84 38.6013Z" fill="white"/>
</g>
<g opacity="0.7">
<path d="M1429.36 667.805H1417.1C1416.34 667.805 1415.73 667.186 1415.73 666.419C1415.73 665.652 1416.34 665.033 1417.1 665.033H1429.36C1430.12 665.033 1430.73 665.652 1430.73 666.419C1430.73 667.186 1430.12 667.805 1429.36 667.805Z" fill="white"/>
<path d="M1423.23 674.003C1422.47 674.003 1421.86 673.385 1421.86 672.619V660.218C1421.86 659.452 1422.47 658.834 1423.23 658.834C1423.99 658.834 1424.6 659.452 1424.6 660.218V672.619C1424.6 673.385 1423.99 674.003 1423.23 674.003Z" fill="white"/>
</g>
<g opacity="0.7">
<path d="M1540.96 272.393H1533.29C1532.82 272.393 1532.44 272.006 1532.44 271.527C1532.44 271.049 1532.82 270.662 1533.29 270.662H1540.96C1541.43 270.662 1541.81 271.049 1541.81 271.527C1541.81 272.006 1541.43 272.393 1540.96 272.393Z" fill="white"/>
<path d="M1537.12 276.268C1536.65 276.268 1536.27 275.881 1536.27 275.403V267.652C1536.27 267.174 1536.65 266.787 1537.12 266.787C1537.59 266.787 1537.98 267.174 1537.98 267.652V275.403C1537.98 275.881 1537.59 276.268 1537.12 276.268Z" fill="white"/>
</g>
<g opacity="0.7">
<path d="M917.147 515.983L910.645 509.407C910.243 509.001 910.243 508.345 910.645 507.939C911.046 507.533 911.695 507.533 912.096 507.939L918.598 514.515C919 514.921 919 515.577 918.598 515.983C918.197 516.388 917.548 516.388 917.147 515.983Z" fill="white"/>
<path d="M910.645 515.983C910.243 515.577 910.243 514.921 910.645 514.515L917.147 507.939C917.548 507.533 918.197 507.533 918.598 507.939C919 508.345 919 509.001 918.598 509.407L912.096 515.983C911.695 516.388 911.046 516.388 910.645 515.983Z" fill="white"/>
</g>
<g opacity="0.7">
<path d="M2180.9 63.045H2175.38C2175.04 63.045 2174.77 62.7677 2174.77 62.4219C2174.77 62.0762 2175.04 61.7988 2175.38 61.7988H2180.9C2181.24 61.7988 2181.52 62.0762 2181.52 62.4219C2181.52 62.7677 2181.24 63.045 2180.9 63.045Z" fill="white"/>
<path d="M2178.14 65.832C2177.8 65.832 2177.52 65.5551 2177.52 65.21V59.6278C2177.52 59.2827 2177.8 59.0059 2178.14 59.0059C2178.48 59.0059 2178.75 59.2827 2178.75 59.6278V65.21C2178.75 65.5551 2178.48 65.832 2178.14 65.832Z" fill="white"/>
</g>
<path opacity="0.7" d="M1666.87 600.131C1669.46 600.131 1671.55 598.009 1671.55 595.391C1671.55 592.773 1669.46 590.65 1666.87 590.65C1664.28 590.65 1662.18 592.773 1662.18 595.391C1662.18 598.009 1664.28 600.131 1666.87 600.131Z" fill="#DF2171"/>
<path opacity="0.7" d="M2164.3 446.352C2166.89 446.352 2168.99 444.229 2168.99 441.611C2168.99 438.993 2166.89 436.871 2164.3 436.871C2161.72 436.871 2159.62 438.993 2159.62 441.611C2159.62 444.229 2161.72 446.352 2164.3 446.352Z" fill="#DF2171"/>
<path opacity="0.7" d="M1946.06 704.988C1947.62 704.988 1948.87 703.715 1948.87 702.143C1948.87 700.572 1947.62 699.299 1946.06 699.299C1944.51 699.299 1943.25 700.572 1943.25 702.143C1943.25 703.715 1944.51 704.988 1946.06 704.988Z" fill="white"/>
<path opacity="0.7" d="M1124.43 765.473C1127.54 765.473 1130.05 762.926 1130.05 759.785C1130.05 756.643 1127.54 754.096 1124.43 754.096C1121.32 754.096 1118.8 756.643 1118.8 759.785C1118.8 762.926 1121.32 765.473 1124.43 765.473Z" fill="white"/>
<path opacity="0.7" d="M1110.93 254.272C1113 254.272 1114.68 252.574 1114.68 250.48C1114.68 248.385 1113 246.688 1110.93 246.688C1108.86 246.688 1107.18 248.385 1107.18 250.48C1107.18 252.574 1108.86 254.272 1110.93 254.272Z" fill="white"/>
<path opacity="0.7" d="M1473.55 153.211C1475.11 153.211 1476.37 151.937 1476.37 150.366C1476.37 148.795 1475.11 147.521 1473.55 147.521C1472 147.521 1470.74 148.795 1470.74 150.366C1470.74 151.937 1472 153.211 1473.55 153.211Z" fill="#DF2171"/>
<path opacity="0.7" d="M1832.62 161.553C1835.72 161.553 1838.24 159.006 1838.24 155.864C1838.24 152.723 1835.72 150.176 1832.62 150.176C1829.51 150.176 1826.99 152.723 1826.99 155.864C1826.99 159.006 1829.51 161.553 1832.62 161.553Z" fill="white"/>
<path opacity="0.7" d="M1302.18 473.277C1303.73 473.277 1304.99 472.004 1304.99 470.433C1304.99 468.861 1303.73 467.588 1302.18 467.588C1300.63 467.588 1299.37 468.861 1299.37 470.433C1299.37 472.004 1300.63 473.277 1302.18 473.277Z" fill="#DF2171"/>
<path opacity="0.7" d="M850.117 157.569C852.706 157.569 854.805 155.446 854.805 152.828C854.805 150.21 852.706 148.088 850.117 148.088C847.528 148.088 845.43 150.21 845.43 152.828C845.43 155.446 847.528 157.569 850.117 157.569Z" fill="#DF2171"/>
</g>
</g>
<g opacity="0.2">
<mask id="mask2_1_1147" style="mask-type:luminance" maskUnits="userSpaceOnUse" x="780" y="2038" width="1440" height="1021">
<path d="M2220 2038.73H780V3058.1H2220V2038.73Z" fill="white"/>
</mask>
<g mask="url(#mask2_1_1147)">
<path d="M2220 2038.73H780V3058.1H2220V2038.73Z" fill="#1C1C1C"/>
<path d="M2261.85 2950.85C2238.02 2959.71 2213.19 2963.58 2188.05 2962.37C2163.76 2961.2 2140.2 2955.35 2118.03 2944.99C2095.86 2934.62 2076.19 2920.27 2059.57 2902.32C2042.36 2883.74 2029.19 2862.1 2020.43 2838C2011.67 2813.91 2007.84 2788.79 2009.04 2763.37C2010.19 2738.8 2015.98 2714.99 2026.23 2692.56C2036.47 2670.14 2050.67 2650.25 2068.42 2633.44C2086.79 2616.04 2108.19 2602.73 2132.02 2593.86C2155.84 2585 2180.68 2581.12 2205.82 2582.34C2230.11 2583.51 2253.66 2589.36 2275.84 2599.72C2298.01 2610.09 2317.68 2624.44 2334.3 2642.39C2351.5 2660.97 2364.67 2682.61 2373.43 2706.71C2382.2 2730.8 2386.03 2755.92 2384.83 2781.34C2383.67 2805.91 2377.88 2829.72 2367.64 2852.15C2357.39 2874.57 2343.2 2894.46 2325.45 2911.27C2307.07 2928.67 2285.67 2941.98 2261.85 2950.85ZM2133.57 2598.13C2110.31 2606.78 2089.42 2619.78 2071.49 2636.76C2054.16 2653.17 2040.31 2672.58 2030.3 2694.47C2020.3 2716.35 2014.66 2739.61 2013.52 2763.58C2012.35 2788.4 2016.1 2812.91 2024.65 2836.43C2033.2 2859.95 2046.06 2881.07 2062.85 2899.21C2079.07 2916.73 2098.27 2930.74 2119.91 2940.86C2141.56 2950.98 2164.55 2956.68 2188.26 2957.83C2212.8 2959.01 2237.04 2955.23 2260.29 2946.58C2283.55 2937.93 2304.44 2924.93 2322.37 2907.94C2339.7 2891.54 2353.55 2872.13 2363.56 2850.24C2373.56 2828.35 2379.2 2805.1 2380.34 2781.13C2381.51 2756.31 2377.76 2731.8 2369.21 2708.28C2360.66 2684.76 2347.81 2663.63 2331.01 2645.5C2314.79 2627.97 2295.59 2613.97 2273.95 2603.85C2252.3 2593.73 2229.31 2588.02 2205.61 2586.88C2181.06 2585.69 2156.83 2589.48 2133.57 2598.13Z" fill="url(#paint16_linear_1_1147)"/>
<path d="M1040.06 3247.34C972.401 3247.34 906.765 3233.93 844.972 3207.5C815.276 3194.8 786.63 3179.08 759.836 3160.77C733.297 3142.64 708.341 3121.82 685.665 3098.89C662.985 3075.95 642.397 3050.71 624.465 3023.88C606.363 2996.78 590.816 2967.82 578.253 2937.78C552.12 2875.3 538.867 2808.92 538.867 2740.5C538.867 2672.07 552.12 2605.7 578.253 2543.21C590.816 2513.18 606.36 2484.21 624.465 2457.11C642.393 2430.27 662.985 2405.04 685.665 2382.11C708.345 2359.17 733.301 2338.35 759.836 2320.22C786.63 2301.91 815.272 2286.19 844.972 2273.48C906.761 2247.05 972.397 2233.65 1040.06 2233.65C1107.72 2233.65 1173.35 2247.05 1235.14 2273.48C1264.84 2286.19 1293.49 2301.91 1320.28 2320.22C1346.82 2338.35 1371.78 2359.17 1394.45 2382.11C1417.13 2405.04 1437.72 2430.28 1455.65 2457.11C1473.75 2484.21 1489.3 2513.17 1501.86 2543.21C1527.99 2605.69 1541.25 2672.07 1541.25 2740.5C1541.25 2808.92 1527.99 2875.29 1501.86 2937.78C1489.3 2967.81 1473.75 2996.78 1455.65 3023.88C1437.72 3050.72 1417.13 3075.95 1394.45 3098.89C1371.77 3121.82 1346.82 3142.64 1320.28 3160.77C1293.49 3179.08 1264.84 3194.8 1235.14 3207.5C1173.36 3233.93 1107.72 3247.34 1040.06 3247.34ZM1040.06 2237.95C972.971 2237.95 907.89 2251.23 846.626 2277.44C817.181 2290.03 788.778 2305.62 762.213 2323.77C735.9 2341.75 711.153 2362.4 688.665 2385.14C666.176 2407.88 645.761 2432.91 627.982 2459.52C610.035 2486.38 594.618 2515.1 582.165 2544.88C556.252 2606.84 543.112 2672.65 543.112 2740.5C543.112 2808.34 556.252 2874.15 582.165 2936.11C594.618 2965.89 610.035 2994.61 627.982 3021.47C645.761 3048.08 666.176 3073.11 688.665 3095.85C711.153 3118.59 735.9 3139.24 762.213 3157.22C788.778 3175.37 817.181 3190.96 846.626 3203.55C907.89 3229.76 972.971 3243.05 1040.06 3243.05C1107.15 3243.05 1172.23 3229.76 1233.49 3203.55C1262.94 3190.96 1291.34 3175.37 1317.9 3157.22C1344.22 3139.24 1368.96 3118.59 1391.45 3095.85C1413.94 3073.11 1434.36 3048.08 1452.13 3021.47C1470.08 2994.61 1485.5 2965.89 1497.95 2936.11C1523.86 2874.15 1537 2808.34 1537 2740.5C1537 2672.65 1523.86 2606.84 1497.95 2544.88C1485.5 2515.1 1470.08 2486.38 1452.13 2459.52C1434.36 2432.91 1413.94 2407.88 1391.45 2385.14C1368.96 2362.4 1344.22 2341.75 1317.9 2323.77C1291.34 2305.62 1262.94 2290.03 1233.49 2277.44C1172.23 2251.23 1107.15 2237.95 1040.06 2237.95Z" fill="url(#paint17_linear_1_1147)"/>
<path d="M1742.44 2310.26C1696.14 2310.26 1651.23 2301.09 1608.95 2283.01C1568.11 2265.54 1531.44 2240.53 1499.94 2208.69C1468.45 2176.84 1443.72 2139.75 1426.45 2098.45C1408.57 2055.69 1399.5 2010.28 1399.5 1963.46C1399.5 1916.64 1408.57 1871.22 1426.45 1828.46C1443.72 1787.17 1468.45 1750.08 1499.94 1718.23C1531.44 1686.38 1568.11 1661.37 1608.95 1643.91C1651.23 1625.82 1696.14 1616.65 1742.44 1616.65C1788.73 1616.65 1833.64 1625.82 1875.93 1643.91C1916.76 1661.37 1953.44 1686.38 1984.93 1718.23C2016.42 1750.08 2041.15 1787.17 2058.42 1828.46C2076.31 1871.22 2085.38 1916.64 2085.38 1963.46C2085.38 2010.28 2076.31 2055.69 2058.42 2098.45C2041.15 2139.75 2016.42 2176.84 1984.93 2208.69C1953.44 2240.53 1916.76 2265.54 1875.93 2283.01C1833.64 2301.09 1788.73 2310.26 1742.44 2310.26ZM1742.44 1621.2C1696.75 1621.2 1652.43 1630.25 1610.7 1648.1C1570.4 1665.34 1534.21 1690.01 1503.13 1721.45C1472.04 1752.88 1447.64 1789.48 1430.6 1830.24C1412.95 1872.43 1404 1917.25 1404 1963.46C1404 2009.66 1412.95 2054.48 1430.6 2096.68C1447.64 2137.43 1472.04 2174.04 1503.13 2205.47C1534.21 2236.9 1570.4 2261.58 1610.7 2278.82C1652.43 2296.66 1696.75 2305.71 1742.44 2305.71C1788.13 2305.71 1832.45 2296.66 1874.17 2278.82C1914.47 2261.58 1950.67 2236.9 1981.75 2205.47C2012.83 2174.03 2037.23 2137.43 2054.28 2096.68C2071.93 2054.48 2080.88 2009.66 2080.88 1963.46C2080.88 1917.25 2071.93 1872.43 2054.28 1830.24C2037.23 1789.48 2012.83 1752.88 1981.75 1721.45C1950.66 1690.01 1914.47 1665.34 1874.17 1648.1C1832.45 1630.25 1788.13 1621.2 1742.44 1621.2Z" fill="url(#paint18_linear_1_1147)"/>
<path d="M961.875 2314.05C939.236 2314.05 917.955 2305.14 901.946 2288.95C885.938 2272.76 877.125 2251.24 877.125 2228.35C877.125 2205.45 885.941 2183.93 901.946 2167.74C917.955 2151.55 939.236 2142.64 961.875 2142.64C984.514 2142.64 1005.8 2151.56 1021.8 2167.74C1037.81 2183.93 1046.62 2205.45 1046.62 2228.35C1046.62 2251.24 1037.81 2272.76 1021.8 2288.95C1005.8 2305.14 984.514 2314.05 961.875 2314.05ZM961.875 2144.92C939.84 2144.92 919.121 2153.59 903.54 2169.36C887.959 2185.11 879.375 2206.06 879.375 2228.35C879.375 2250.63 887.955 2271.58 903.54 2287.34C919.121 2303.1 939.84 2311.78 961.875 2311.78C983.91 2311.78 1004.63 2303.1 1020.21 2287.34C1035.79 2271.58 1044.37 2250.63 1044.37 2228.35C1044.37 2206.06 1035.8 2185.11 1020.21 2169.36C1004.63 2153.6 983.91 2144.92 961.875 2144.92Z" fill="url(#paint19_linear_1_1147)"/>
<path d="M1806.92 2772.54C1770.22 2772.54 1740.36 2742.34 1740.36 2705.23C1740.36 2668.11 1770.22 2637.92 1806.92 2637.92C1843.62 2637.92 1873.48 2668.11 1873.48 2705.23C1873.48 2742.34 1843.62 2772.54 1806.92 2772.54ZM1806.92 2640.19C1771.46 2640.19 1742.61 2669.37 1742.61 2705.23C1742.61 2741.09 1771.46 2770.27 1806.92 2770.27C1842.39 2770.27 1871.23 2741.09 1871.23 2705.23C1871.23 2669.37 1842.39 2640.19 1806.92 2640.19Z" fill="url(#paint20_linear_1_1147)"/>
<g opacity="0.7">
<path d="M1820.16 2462.69L1809.32 2451.73C1808.65 2451.05 1808.65 2449.95 1809.32 2449.28C1809.99 2448.6 1811.07 2448.6 1811.74 2449.28L1822.58 2460.24C1823.25 2460.92 1823.25 2462.01 1822.58 2462.69C1821.91 2463.36 1820.83 2463.36 1820.16 2462.69Z" fill="white"/>
<path d="M1809.32 2462.69C1808.65 2462.01 1808.65 2460.92 1809.32 2460.24L1820.16 2449.28C1820.83 2448.6 1821.91 2448.6 1822.58 2449.28C1823.25 2449.95 1823.25 2451.05 1822.58 2451.73L1811.74 2462.69C1811.07 2463.36 1809.99 2463.36 1809.32 2462.69Z" fill="white"/>
</g>
<path d="M888.578 2777.38L929.314 2703.8H931.381L890.644 2777.38H888.578Z" fill="url(#paint21_linear_1_1147)"/>
<path d="M867.203 2777.38L907.939 2703.8H910.006L869.269 2777.38H867.203Z" fill="url(#paint22_linear_1_1147)"/>
<path d="M845.828 2777.38L886.564 2703.8H888.631L847.894 2777.38H845.828Z" fill="url(#paint23_linear_1_1147)"/>
<path d="M824.453 2777.38L865.189 2703.8H867.256L826.519 2777.38H824.453Z" fill="url(#paint24_linear_1_1147)"/>
<path d="M803.078 2777.38L843.814 2703.8H845.881L805.144 2777.38H803.078Z" fill="url(#paint25_linear_1_1147)"/>
<path d="M781.703 2777.38L822.439 2703.8H824.506L783.769 2777.38H781.703Z" fill="url(#paint26_linear_1_1147)"/>
<path d="M760.328 2777.38L801.064 2703.8H803.131L762.394 2777.38H760.328Z" fill="url(#paint27_linear_1_1147)"/>
<path d="M738.953 2777.38L779.689 2703.8H781.756L741.019 2777.38H738.953Z" fill="url(#paint28_linear_1_1147)"/>
<g opacity="0.7">
<path d="M1151.84 2066.37L1141 2077.34C1140.33 2078.01 1139.25 2078.01 1138.58 2077.34C1137.91 2076.66 1137.91 2075.56 1138.58 2074.89L1149.42 2063.93C1150.09 2063.25 1151.17 2063.25 1151.84 2063.93C1152.51 2064.6 1152.51 2065.7 1151.84 2066.37Z" fill="white"/>
<path d="M1151.84 2077.34C1151.17 2078.01 1150.09 2078.01 1149.42 2077.34L1138.58 2066.37C1137.91 2065.7 1137.91 2064.6 1138.58 2063.93C1139.25 2063.25 1140.33 2063.25 1141 2063.93L1151.84 2074.89C1152.51 2075.56 1152.51 2076.66 1151.84 2077.34Z" fill="white"/>
</g>
<g opacity="0.7">
<path d="M1429.36 2706.54H1417.1C1416.34 2706.54 1415.73 2705.92 1415.73 2705.15C1415.73 2704.39 1416.34 2703.77 1417.1 2703.77H1429.36C1430.12 2703.77 1430.73 2704.39 1430.73 2705.15C1430.73 2705.92 1430.12 2706.54 1429.36 2706.54Z" fill="white"/>
<path d="M1423.23 2712.74C1422.47 2712.74 1421.86 2712.12 1421.86 2711.35V2698.95C1421.86 2698.19 1422.47 2697.57 1423.23 2697.57C1423.99 2697.57 1424.6 2698.19 1424.6 2698.95V2711.35C1424.6 2712.12 1423.99 2712.74 1423.23 2712.74Z" fill="white"/>
</g>
<g opacity="0.7">
<path d="M1540.96 2311.13H1533.29C1532.82 2311.13 1532.44 2310.74 1532.44 2310.26C1532.44 2309.78 1532.82 2309.4 1533.29 2309.4H1540.96C1541.43 2309.4 1541.81 2309.78 1541.81 2310.26C1541.81 2310.74 1541.43 2311.13 1540.96 2311.13Z" fill="white"/>
<path d="M1537.12 2315C1536.65 2315 1536.27 2314.62 1536.27 2314.14V2306.39C1536.27 2305.91 1536.65 2305.52 1537.12 2305.52C1537.59 2305.52 1537.98 2305.91 1537.98 2306.39V2314.14C1537.98 2314.62 1537.59 2315 1537.12 2315Z" fill="white"/>
</g>
<g opacity="0.7">
<path d="M917.147 2554.72L910.645 2548.14C910.243 2547.74 910.243 2547.08 910.645 2546.67C911.046 2546.27 911.695 2546.27 912.096 2546.67L918.598 2553.25C919 2553.66 919 2554.31 918.598 2554.72C918.197 2555.12 917.548 2555.12 917.147 2554.72Z" fill="white"/>
<path d="M910.645 2554.72C910.243 2554.31 910.243 2553.66 910.645 2553.25L917.147 2546.67C917.548 2546.27 918.197 2546.27 918.598 2546.67C919 2547.08 919 2547.74 918.598 2548.14L912.096 2554.72C911.695 2555.12 911.046 2555.12 910.645 2554.72Z" fill="white"/>
</g>
<g opacity="0.7">
<path d="M2180.9 2101.78H2175.38C2175.04 2101.78 2174.77 2101.5 2174.77 2101.16C2174.77 2100.81 2175.04 2100.53 2175.38 2100.53H2180.9C2181.24 2100.53 2181.52 2100.81 2181.52 2101.16C2181.52 2101.5 2181.24 2101.78 2180.9 2101.78Z" fill="white"/>
<path d="M2178.14 2104.57C2177.8 2104.57 2177.52 2104.29 2177.52 2103.94V2098.36C2177.52 2098.02 2177.8 2097.74 2178.14 2097.74C2178.48 2097.74 2178.75 2098.02 2178.75 2098.36V2103.94C2178.75 2104.29 2178.48 2104.57 2178.14 2104.57Z" fill="white"/>
</g>
<path opacity="0.7" d="M1666.87 2638.87C1669.46 2638.87 1671.55 2636.74 1671.55 2634.13C1671.55 2631.51 1669.46 2629.38 1666.87 2629.38C1664.28 2629.38 1662.18 2631.51 1662.18 2634.13C1662.18 2636.74 1664.28 2638.87 1666.87 2638.87Z" fill="#DF2171"/>
<path opacity="0.7" d="M2164.3 2485.09C2166.89 2485.09 2168.99 2482.96 2168.99 2480.35C2168.99 2477.73 2166.89 2475.61 2164.3 2475.61C2161.72 2475.61 2159.62 2477.73 2159.62 2480.35C2159.62 2482.96 2161.72 2485.09 2164.3 2485.09Z" fill="#DF2171"/>
<path opacity="0.7" d="M1946.06 2743.72C1947.62 2743.72 1948.87 2742.45 1948.87 2740.88C1948.87 2739.31 1947.62 2738.03 1946.06 2738.03C1944.51 2738.03 1943.25 2739.31 1943.25 2740.88C1943.25 2742.45 1944.51 2743.72 1946.06 2743.72Z" fill="white"/>
<path opacity="0.7" d="M1124.43 2804.21C1127.54 2804.21 1130.05 2801.66 1130.05 2798.52C1130.05 2795.38 1127.54 2792.83 1124.43 2792.83C1121.32 2792.83 1118.8 2795.38 1118.8 2798.52C1118.8 2801.66 1121.32 2804.21 1124.43 2804.21Z" fill="white"/>
<path opacity="0.7" d="M1110.93 2293.01C1113 2293.01 1114.68 2291.31 1114.68 2289.21C1114.68 2287.12 1113 2285.42 1110.93 2285.42C1108.86 2285.42 1107.18 2287.12 1107.18 2289.21C1107.18 2291.31 1108.86 2293.01 1110.93 2293.01Z" fill="white"/>
<path opacity="0.7" d="M1473.55 2191.95C1475.11 2191.95 1476.37 2190.67 1476.37 2189.1C1476.37 2187.53 1475.11 2186.26 1473.55 2186.26C1472 2186.26 1470.74 2187.53 1470.74 2189.1C1470.74 2190.67 1472 2191.95 1473.55 2191.95Z" fill="#DF2171"/>
<path opacity="0.7" d="M1832.62 2200.29C1835.72 2200.29 1838.24 2197.74 1838.24 2194.6C1838.24 2191.46 1835.72 2188.91 1832.62 2188.91C1829.51 2188.91 1826.99 2191.46 1826.99 2194.6C1826.99 2197.74 1829.51 2200.29 1832.62 2200.29Z" fill="white"/>
<path opacity="0.7" d="M1302.18 2512.01C1303.73 2512.01 1304.99 2510.74 1304.99 2509.17C1304.99 2507.6 1303.73 2506.32 1302.18 2506.32C1300.63 2506.32 1299.37 2507.6 1299.37 2509.17C1299.37 2510.74 1300.63 2512.01 1302.18 2512.01Z" fill="#DF2171"/>
<path opacity="0.7" d="M850.117 2196.3C852.706 2196.3 854.805 2194.18 854.805 2191.56C854.805 2188.94 852.706 2186.82 850.117 2186.82C847.528 2186.82 845.43 2188.94 845.43 2191.56C845.43 2194.18 847.528 2196.3 850.117 2196.3Z" fill="#DF2171"/>
</g>
</g>
<g opacity="0.2">
<mask id="mask3_1_1147" style="mask-type:luminance" maskUnits="userSpaceOnUse" x="780" y="1019" width="1440" height="1020">
<path d="M2220 1019.37H780V2038.73H2220V1019.37Z" fill="white"/>
</mask>
<g mask="url(#mask3_1_1147)">
<path d="M2220 1019.37H780V2038.73H2220V1019.37Z" fill="#1C1C1C"/>
<path d="M2261.85 1931.48C2238.02 1940.34 2213.19 1944.22 2188.05 1943C2163.76 1941.83 2140.2 1935.98 2118.03 1925.62C2095.86 1915.26 2076.19 1900.9 2059.57 1882.95C2042.36 1864.37 2029.19 1842.73 2020.43 1818.64C2011.67 1794.54 2007.84 1769.43 2009.04 1744C2010.19 1719.44 2015.98 1695.62 2026.23 1673.19C2036.47 1650.77 2050.67 1630.88 2068.42 1614.08C2086.79 1596.67 2108.19 1583.36 2132.02 1574.5C2155.84 1565.63 2180.68 1561.76 2205.82 1562.97C2230.11 1564.14 2253.66 1569.99 2275.84 1580.35C2298.01 1590.72 2317.68 1605.07 2334.3 1623.02C2351.5 1641.6 2364.67 1663.25 2373.43 1687.34C2382.2 1711.44 2386.03 1736.55 2384.83 1761.98C2383.67 1786.54 2377.88 1810.36 2367.64 1832.78C2357.39 1855.2 2343.2 1875.09 2325.45 1891.9C2307.07 1909.3 2285.67 1922.62 2261.85 1931.48ZM2133.57 1578.76C2110.31 1587.41 2089.42 1600.41 2071.49 1617.39C2054.16 1633.8 2040.31 1653.21 2030.3 1675.1C2020.3 1696.99 2014.66 1720.24 2013.52 1744.21C2012.35 1769.03 2016.1 1793.54 2024.65 1817.06C2033.2 1840.58 2046.06 1861.7 2062.85 1879.84C2079.07 1897.36 2098.27 1911.37 2119.91 1921.49C2141.56 1931.61 2164.55 1937.32 2188.26 1938.46C2212.8 1939.64 2237.04 1935.86 2260.29 1927.21C2283.55 1918.56 2304.44 1905.56 2322.37 1888.58C2339.7 1872.17 2353.55 1852.76 2363.56 1830.87C2373.56 1808.98 2379.2 1785.73 2380.34 1761.76C2381.51 1736.94 2377.76 1712.43 2369.21 1688.91C2360.66 1665.39 2347.81 1644.27 2331.01 1626.13C2314.79 1608.61 2295.59 1594.6 2273.95 1584.48C2252.3 1574.36 2229.31 1568.66 2205.61 1567.51C2181.06 1566.33 2156.83 1570.11 2133.57 1578.76Z" fill="url(#paint29_linear_1_1147)"/>
<path d="M1040.06 2227.97C972.401 2227.97 906.765 2214.57 844.972 2188.14C815.276 2175.43 786.63 2159.71 759.836 2141.41C733.297 2123.27 708.341 2102.45 685.665 2079.52C662.985 2056.58 642.397 2031.35 624.465 2004.51C606.363 1977.42 590.816 1948.45 578.253 1918.41C552.12 1855.93 538.867 1789.55 538.867 1721.13C538.867 1652.7 552.12 1586.33 578.253 1523.84C590.816 1493.81 606.36 1464.84 624.465 1437.75C642.393 1410.91 662.985 1385.67 685.665 1362.74C708.345 1339.81 733.301 1318.98 759.836 1300.85C786.63 1282.54 815.272 1266.82 844.972 1254.12C906.761 1227.69 972.397 1214.29 1040.06 1214.29C1107.72 1214.29 1173.35 1227.69 1235.14 1254.12C1264.84 1266.82 1293.49 1282.54 1320.28 1300.85C1346.82 1318.98 1371.78 1339.8 1394.45 1362.74C1417.13 1385.67 1437.72 1410.91 1455.65 1437.75C1473.75 1464.84 1489.3 1493.81 1501.86 1523.84C1527.99 1586.33 1541.25 1652.7 1541.25 1721.13C1541.25 1789.55 1527.99 1855.93 1501.86 1918.41C1489.3 1948.45 1473.75 1977.42 1455.65 2004.51C1437.72 2031.35 1417.13 2056.59 1394.45 2079.52C1371.77 2102.45 1346.82 2123.27 1320.28 2141.41C1293.49 2159.71 1264.84 2175.43 1235.14 2188.14C1173.36 2214.57 1107.72 2227.97 1040.06 2227.97ZM1040.06 1218.58C972.971 1218.58 907.89 1231.87 846.626 1258.07C817.181 1270.67 788.778 1286.26 762.213 1304.41C735.9 1322.38 711.153 1343.03 688.665 1365.77C666.176 1388.51 645.761 1413.54 627.982 1440.15C610.035 1467.01 594.618 1495.74 582.165 1525.51C556.252 1587.47 543.112 1653.28 543.112 1721.13C543.112 1788.97 556.252 1854.79 582.165 1916.74C594.618 1946.52 610.035 1975.24 627.982 2002.11C645.761 2028.72 666.176 2053.74 688.665 2076.49C711.153 2099.23 735.9 2119.87 762.213 2137.85C788.778 2156 817.181 2171.59 846.626 2184.19C907.89 2210.39 972.971 2223.68 1040.06 2223.68C1107.15 2223.68 1172.23 2210.39 1233.49 2184.19C1262.94 2171.59 1291.34 2156 1317.9 2137.85C1344.22 2119.87 1368.96 2099.23 1391.45 2076.49C1413.94 2053.74 1434.36 2028.72 1452.13 2002.11C1470.08 1975.24 1485.5 1946.52 1497.95 1916.74C1523.86 1854.79 1537 1788.97 1537 1721.13C1537 1653.28 1523.86 1587.47 1497.95 1525.51C1485.5 1495.74 1470.08 1467.01 1452.13 1440.15C1434.36 1413.54 1413.94 1388.51 1391.45 1365.77C1368.96 1343.03 1344.22 1322.38 1317.9 1304.41C1291.34 1286.26 1262.94 1270.67 1233.49 1258.07C1172.23 1231.87 1107.15 1218.58 1040.06 1218.58Z" fill="url(#paint30_linear_1_1147)"/>
<path d="M1742.44 1290.89C1696.14 1290.89 1651.23 1281.73 1608.95 1263.64C1568.11 1246.17 1531.44 1221.17 1499.94 1189.32C1468.45 1157.47 1443.72 1120.38 1426.45 1079.08C1408.57 1036.33 1399.5 990.91 1399.5 944.09C1399.5 897.27 1408.57 851.854 1426.45 809.096C1443.72 767.798 1468.45 730.709 1499.94 698.862C1531.44 667.014 1568.11 642.008 1608.95 624.54C1651.23 606.455 1696.14 597.285 1742.44 597.285C1788.73 597.285 1833.64 606.455 1875.93 624.54C1916.76 642.008 1953.44 667.014 1984.93 698.862C2016.42 730.709 2041.15 767.798 2058.42 809.096C2076.31 851.854 2085.38 897.27 2085.38 944.09C2085.38 990.91 2076.31 1036.33 2058.42 1079.08C2041.15 1120.38 2016.42 1157.47 1984.93 1189.32C1953.44 1221.17 1916.76 1246.17 1875.93 1263.64C1833.64 1281.73 1788.73 1290.89 1742.44 1290.89ZM1742.44 601.836C1696.75 601.836 1652.43 610.884 1610.7 628.731C1570.4 645.971 1534.21 670.647 1503.13 702.081C1472.04 733.516 1447.64 770.115 1430.6 810.871C1412.95 853.064 1404 897.885 1404 944.09C1404 990.295 1412.95 1035.12 1430.6 1077.31C1447.64 1118.07 1472.04 1154.67 1503.13 1186.1C1534.21 1217.53 1570.4 1242.21 1610.7 1259.45C1652.43 1277.3 1696.75 1286.34 1742.44 1286.34C1788.13 1286.34 1832.45 1277.3 1874.17 1259.45C1914.47 1242.21 1950.67 1217.53 1981.75 1186.1C2012.83 1154.66 2037.23 1118.07 2054.28 1077.31C2071.93 1035.12 2080.88 990.295 2080.88 944.09C2080.88 897.885 2071.93 853.064 2054.28 810.871C2037.23 770.115 2012.83 733.512 1981.75 702.081C1950.66 670.647 1914.47 645.971 1874.17 628.731C1832.45 610.884 1788.13 601.836 1742.44 601.836Z" fill="url(#paint31_linear_1_1147)"/>
<path d="M961.875 1294.69C939.236 1294.69 917.955 1285.77 901.946 1269.59C885.938 1253.4 877.125 1231.88 877.125 1208.98C877.125 1186.09 885.941 1164.57 901.946 1148.38C917.955 1132.19 939.236 1123.28 961.875 1123.28C984.514 1123.28 1005.8 1132.19 1021.8 1148.38C1037.81 1164.57 1046.62 1186.09 1046.62 1208.98C1046.62 1231.88 1037.81 1253.4 1021.8 1269.59C1005.8 1285.78 984.514 1294.69 961.875 1294.69ZM961.875 1125.55C939.84 1125.55 919.121 1134.23 903.54 1149.99C887.959 1165.75 879.375 1186.7 879.375 1208.98C879.375 1231.26 887.955 1252.22 903.54 1267.97C919.121 1283.73 939.84 1292.41 961.875 1292.41C983.91 1292.41 1004.63 1283.73 1020.21 1267.97C1035.79 1252.22 1044.37 1231.26 1044.37 1208.98C1044.37 1186.7 1035.8 1165.75 1020.21 1149.99C1004.63 1134.23 983.91 1125.55 961.875 1125.55Z" fill="url(#paint32_linear_1_1147)"/>
<path d="M1806.92 1753.18C1770.22 1753.18 1740.36 1722.98 1740.36 1685.86C1740.36 1648.75 1770.22 1618.55 1806.92 1618.55C1843.62 1618.55 1873.48 1648.75 1873.48 1685.86C1873.48 1722.98 1843.62 1753.18 1806.92 1753.18ZM1806.92 1620.82C1771.46 1620.82 1742.61 1650 1742.61 1685.86C1742.61 1721.73 1771.46 1750.9 1806.92 1750.9C1842.39 1750.9 1871.23 1721.73 1871.23 1685.86C1871.23 1650 1842.39 1620.82 1806.92 1620.82Z" fill="url(#paint33_linear_1_1147)"/>
<g opacity="0.7">
<path d="M1820.16 1443.32L1809.32 1432.36C1808.65 1431.68 1808.65 1430.59 1809.32 1429.91C1809.99 1429.24 1811.07 1429.24 1811.74 1429.91L1822.58 1440.88C1823.25 1441.55 1823.25 1442.65 1822.58 1443.32C1821.91 1444 1820.83 1444 1820.16 1443.32Z" fill="white"/>
<path d="M1809.32 1443.32C1808.65 1442.65 1808.65 1441.55 1809.32 1440.88L1820.16 1429.91C1820.83 1429.24 1821.91 1429.24 1822.58 1429.91C1823.25 1430.59 1823.25 1431.68 1822.58 1432.36L1811.74 1443.32C1811.07 1444 1809.99 1444 1809.32 1443.32Z" fill="white"/>
</g>
<path d="M888.578 1758.01L929.314 1684.43H931.381L890.644 1758.01H888.578Z" fill="url(#paint34_linear_1_1147)"/>
<path d="M867.203 1758.01L907.939 1684.43H910.006L869.269 1758.01H867.203Z" fill="url(#paint35_linear_1_1147)"/>
<path d="M845.828 1758.01L886.564 1684.43H888.631L847.894 1758.01H845.828Z" fill="url(#paint36_linear_1_1147)"/>
<path d="M824.453 1758.01L865.189 1684.43H867.256L826.519 1758.01H824.453Z" fill="url(#paint37_linear_1_1147)"/>
<path d="M803.078 1758.01L843.814 1684.43H845.881L805.144 1758.01H803.078Z" fill="url(#paint38_linear_1_1147)"/>
<path d="M781.703 1758.01L822.439 1684.43H824.506L783.769 1758.01H781.703Z" fill="url(#paint39_linear_1_1147)"/>
<path d="M760.328 1758.01L801.064 1684.43H803.131L762.394 1758.01H760.328Z" fill="url(#paint40_linear_1_1147)"/>
<path d="M738.953 1758.01L779.689 1684.43H781.756L741.019 1758.01H738.953Z" fill="url(#paint41_linear_1_1147)"/>
<g opacity="0.7">
<path d="M1151.84 1047.01L1141 1057.97C1140.33 1058.64 1139.25 1058.64 1138.58 1057.97C1137.91 1057.29 1137.91 1056.2 1138.58 1055.52L1149.42 1044.56C1150.09 1043.88 1151.17 1043.88 1151.84 1044.56C1152.51 1045.23 1152.51 1046.33 1151.84 1047.01Z" fill="white"/>
<path d="M1151.84 1057.97C1151.17 1058.64 1150.09 1058.64 1149.42 1057.97L1138.58 1047.01C1137.91 1046.33 1137.91 1045.23 1138.58 1044.56C1139.25 1043.88 1140.33 1043.88 1141 1044.56L1151.84 1055.52C1152.51 1056.2 1152.51 1057.29 1151.84 1057.97Z" fill="white"/>
</g>
<g opacity="0.7">
<path d="M1429.36 1687.17H1417.1C1416.34 1687.17 1415.73 1686.55 1415.73 1685.79C1415.73 1685.02 1416.34 1684.4 1417.1 1684.4H1429.36C1430.12 1684.4 1430.73 1685.02 1430.73 1685.79C1430.73 1686.55 1430.12 1687.17 1429.36 1687.17Z" fill="white"/>
<path d="M1423.23 1693.37C1422.47 1693.37 1421.86 1692.75 1421.86 1691.99V1679.59C1421.86 1678.82 1422.47 1678.2 1423.23 1678.2C1423.99 1678.2 1424.6 1678.82 1424.6 1679.59V1691.99C1424.6 1692.75 1423.99 1693.37 1423.23 1693.37Z" fill="white"/>
</g>
<g opacity="0.7">
<path d="M1540.96 1291.76H1533.29C1532.82 1291.76 1532.44 1291.37 1532.44 1290.89C1532.44 1290.42 1532.82 1290.03 1533.29 1290.03H1540.96C1541.43 1290.03 1541.81 1290.42 1541.81 1290.89C1541.81 1291.37 1541.43 1291.76 1540.96 1291.76Z" fill="white"/>
<path d="M1537.12 1295.64C1536.65 1295.64 1536.27 1295.25 1536.27 1294.77V1287.02C1536.27 1286.54 1536.65 1286.15 1537.12 1286.15C1537.59 1286.15 1537.98 1286.54 1537.98 1287.02V1294.77C1537.98 1295.25 1537.59 1295.64 1537.12 1295.64Z" fill="white"/>
</g>
<g opacity="0.7">
<path d="M917.147 1535.35L910.645 1528.77C910.243 1528.37 910.243 1527.71 910.645 1527.31C911.046 1526.9 911.695 1526.9 912.096 1527.31L918.598 1533.88C919 1534.29 919 1534.94 918.598 1535.35C918.197 1535.76 917.548 1535.76 917.147 1535.35Z" fill="white"/>
<path d="M910.645 1535.35C910.243 1534.94 910.243 1534.29 910.645 1533.88L917.147 1527.31C917.548 1526.9 918.197 1526.9 918.598 1527.31C919 1527.71 919 1528.37 918.598 1528.77L912.096 1535.35C911.695 1535.76 911.046 1535.76 910.645 1535.35Z" fill="white"/>
</g>
<g opacity="0.7">
<path d="M2180.9 1082.41H2175.38C2175.04 1082.41 2174.77 1082.13 2174.77 1081.79C2174.77 1081.44 2175.04 1081.17 2175.38 1081.17H2180.9C2181.24 1081.17 2181.52 1081.44 2181.52 1081.79C2181.52 1082.13 2181.24 1082.41 2180.9 1082.41Z" fill="white"/>
<path d="M2178.14 1085.2C2177.8 1085.2 2177.52 1084.92 2177.52 1084.58V1078.99C2177.52 1078.65 2177.8 1078.37 2178.14 1078.37C2178.48 1078.37 2178.75 1078.65 2178.75 1078.99V1084.58C2178.75 1084.92 2178.48 1085.2 2178.14 1085.2Z" fill="white"/>
</g>
<path opacity="0.7" d="M1666.87 1619.5C1669.46 1619.5 1671.55 1617.38 1671.55 1614.76C1671.55 1612.14 1669.46 1610.02 1666.87 1610.02C1664.28 1610.02 1662.18 1612.14 1662.18 1614.76C1662.18 1617.38 1664.28 1619.5 1666.87 1619.5Z" fill="#DF2171"/>
<path opacity="0.7" d="M2164.3 1465.72C2166.89 1465.72 2168.99 1463.6 2168.99 1460.98C2168.99 1458.36 2166.89 1456.24 2164.3 1456.24C2161.72 1456.24 2159.62 1458.36 2159.62 1460.98C2159.62 1463.6 2161.72 1465.72 2164.3 1465.72Z" fill="#DF2171"/>
<path opacity="0.7" d="M1946.06 1724.36C1947.62 1724.36 1948.87 1723.08 1948.87 1721.51C1948.87 1719.94 1947.62 1718.67 1946.06 1718.67C1944.51 1718.67 1943.25 1719.94 1943.25 1721.51C1943.25 1723.08 1944.51 1724.36 1946.06 1724.36Z" fill="white"/>
<path opacity="0.7" d="M1124.43 1784.84C1127.54 1784.84 1130.05 1782.29 1130.05 1779.15C1130.05 1776.01 1127.54 1773.46 1124.43 1773.46C1121.32 1773.46 1118.8 1776.01 1118.8 1779.15C1118.8 1782.29 1121.32 1784.84 1124.43 1784.84Z" fill="white"/>
<path opacity="0.7" d="M1110.93 1273.64C1113 1273.64 1114.68 1271.94 1114.68 1269.85C1114.68 1267.75 1113 1266.05 1110.93 1266.05C1108.86 1266.05 1107.18 1267.75 1107.18 1269.85C1107.18 1271.94 1108.86 1273.64 1110.93 1273.64Z" fill="white"/>
<path opacity="0.7" d="M1473.55 1172.58C1475.11 1172.58 1476.37 1171.3 1476.37 1169.73C1476.37 1168.16 1475.11 1166.89 1473.55 1166.89C1472 1166.89 1470.74 1168.16 1470.74 1169.73C1470.74 1171.3 1472 1172.58 1473.55 1172.58Z" fill="#DF2171"/>
<path opacity="0.7" d="M1832.62 1180.92C1835.72 1180.92 1838.24 1178.37 1838.24 1175.23C1838.24 1172.09 1835.72 1169.54 1832.62 1169.54C1829.51 1169.54 1826.99 1172.09 1826.99 1175.23C1826.99 1178.37 1829.51 1180.92 1832.62 1180.92Z" fill="white"/>
<path opacity="0.7" d="M1302.18 1492.64C1303.73 1492.64 1304.99 1491.37 1304.99 1489.8C1304.99 1488.23 1303.73 1486.96 1302.18 1486.96C1300.63 1486.96 1299.37 1488.23 1299.37 1489.8C1299.37 1491.37 1300.63 1492.64 1302.18 1492.64Z" fill="#DF2171"/>
<path opacity="0.7" d="M850.117 1176.94C852.706 1176.94 854.805 1174.81 854.805 1172.2C854.805 1169.58 852.706 1167.46 850.117 1167.46C847.528 1167.46 845.43 1169.58 845.43 1172.2C845.43 1174.81 847.528 1176.94 850.117 1176.94Z" fill="#DF2171"/>
</g>
</g>
<g filter="url(#filter0_f_1_1147)">
<circle cx="882.5" cy="717.499" r="215.5" fill="#F73F7C" fill-opacity="0.4"/>
</g>
<g filter="url(#filter1_f_1_1147)">
<circle cx="2161.5" cy="1128.5" r="107.5" fill="#F73F7C" fill-opacity="0.4"/>
</g>
<g filter="url(#filter2_f_1_1147)">
<circle cx="2129.5" cy="637.499" r="225.5" fill="#2945A9" fill-opacity="0.4"/>
</g>
<g style="mix-blend-mode:exclusion" opacity="0.2">
<g style="mix-blend-mode:overlay">
<path d="M2561.13 1613.52L2385.94 1640.78L2386.42 1646.51L2561.61 1619.25L2561.13 1613.52Z" fill="white" fill-opacity="0.2"/>
</g>
<g style="mix-blend-mode:overlay">
<path d="M2569.07 1581.29L2118.56 1658.04L2118.68 1661.46L2569.19 1584.71L2569.07 1581.29Z" fill="white" fill-opacity="0.2"/>
</g>
<g style="mix-blend-mode:overlay">
<path d="M2569.07 1581.29L2118.56 1658.04L2118.68 1661.46L2569.19 1584.71L2569.07 1581.29Z" fill="white" fill-opacity="0.2"/>
</g>
<g style="mix-blend-mode:screen" opacity="0.48">
<path d="M2556.82 1630.66L1850.51 1756.3L2000.14 1904.34L2706.46 1778.71C2706.8 1767.55 2556.82 1630.66 2556.82 1630.66Z" fill="#11137D"/>
</g>
<g style="mix-blend-mode:overlay">
<path d="M2569.13 1845.39L2148.84 1920.02L2150.3 1933.74L2570.59 1859.12L2569.13 1845.39Z" fill="white" fill-opacity="0.2"/>
</g>
<g style="mix-blend-mode:overlay">
<path d="M2156.9 1896.31L1982.2 1928.49L1982.85 1934.19L2157.54 1902.01L2156.9 1896.31Z" fill="white" fill-opacity="0.2"/>
</g>
<g style="mix-blend-mode:overlay">
<path d="M2204.93 1667.22L1754.42 1743.96L1755.09 1752.04L2205.61 1675.29L2204.93 1667.22Z" fill="white" fill-opacity="0.2"/>
</g>
<g style="mix-blend-mode:overlay">
<path d="M2204.93 1667.22L1754.42 1743.96L1755.09 1752.04L2205.61 1675.29L2204.93 1667.22Z" fill="white" fill-opacity="0.2"/>
</g>
<g style="mix-blend-mode:overlay">
<path d="M2467.22 1904.16L2016.72 1980.91L2016.84 1984.33L2467.34 1907.58L2467.22 1904.16Z" fill="white" fill-opacity="0.2"/>
</g>
<g style="mix-blend-mode:overlay">
<path d="M2467.22 1904.16L2016.72 1980.91L2016.84 1984.33L2467.34 1907.58L2467.22 1904.16Z" fill="white" fill-opacity="0.2"/>
</g>
<g style="mix-blend-mode:overlay">
<path d="M2461.82 1527.17L1755.5 1652.81L1823.56 1720.15L2529.88 1594.5C2530.23 1583.35 2461.82 1527.17 2461.82 1527.17Z" fill="#11137D"/>
</g>
<g style="mix-blend-mode:overlay">
<path d="M2778.96 1292.71L1976.52 1444.27L2044.58 1511.6L2847.02 1360.05C2847.37 1348.89 2778.96 1292.71 2778.96 1292.71Z" fill="#11137D"/>
</g>
<g style="mix-blend-mode:overlay">
<path d="M2159.63 1758.77L1521.52 1838.05L1548.46 1900.1L2187.57 1786.42L2159.63 1758.77Z" fill="#11137D"/>
</g>
<g style="mix-blend-mode:overlay">
<path d="M2365.25 1821.45L1726.14 1935.14L1754.08 1962.78L2393.19 1849.1L2365.25 1821.45Z" fill="#11137D"/>
</g>
<g style="mix-blend-mode:overlay">
<path d="M2775.62 1583.09L2136.52 1696.78L2164.46 1724.42L2803.56 1610.74L2775.62 1583.09Z" fill="#11137D"/>
</g>
<g style="mix-blend-mode:overlay">
<path d="M2813.62 1436.34L2174.52 1550.03L2202.46 1558.55L2841.56 1444.86L2813.62 1436.34Z" fill="#11137D"/>
</g>
<g style="mix-blend-mode:overlay" opacity="0.5">
<path d="M1848.62 1868.34L1203.52 1971.05L1237.47 2009.67L1876.56 1895.99L1848.62 1868.34Z" fill="#11137D"/>
</g>
<g style="mix-blend-mode:overlay">
<path d="M2886.17 1687.18L2247.07 1800.86L2275.01 1828.51L2914.11 1714.83L2886.17 1687.18Z" fill="#11137D"/>
</g>
<g style="mix-blend-mode:overlay">
<path d="M2617.68 1690.88L1911.37 1816.52L2061 1964.56L2767.32 1838.93C2767.66 1827.77 2617.68 1690.88 2617.68 1690.88Z" fill="#72008F"/>
</g>
</g>
<g style="mix-blend-mode:exclusion" opacity="0.2">
<g style="mix-blend-mode:overlay">
<path d="M992.127 1729.52L816.945 1756.78L817.426 1762.51L992.607 1735.25L992.127 1729.52Z" fill="white" fill-opacity="0.2"/>
</g>
<g style="mix-blend-mode:overlay">
<path d="M1000.07 1697.29L549.56 1774.04L549.683 1777.46L1000.19 1700.71L1000.07 1697.29Z" fill="white" fill-opacity="0.2"/>
</g>
<g style="mix-blend-mode:overlay">
<path d="M1000.07 1697.29L549.56 1774.04L549.683 1777.46L1000.19 1700.71L1000.07 1697.29Z" fill="white" fill-opacity="0.2"/>
</g>
<g style="mix-blend-mode:screen" opacity="0.48">
<path d="M987.823 1746.66L281.507 1872.3L431.142 2020.34L1137.46 1894.71C1137.8 1883.55 987.823 1746.66 987.823 1746.66Z" fill="#11137D"/>
</g>
<g style="mix-blend-mode:overlay">
<path d="M1000.13 1961.39L579.844 2036.02L581.302 2049.74L1001.59 1975.12L1000.13 1961.39Z" fill="white" fill-opacity="0.2"/>
</g>
<g style="mix-blend-mode:overlay">
<path d="M587.899 2012.31L413.203 2044.49L413.848 2050.19L588.544 2018.01L587.899 2012.31Z" fill="white" fill-opacity="0.2"/>
</g>
<g style="mix-blend-mode:overlay">
<path d="M635.926 1783.22L185.42 1859.96L186.091 1868.04L636.606 1791.29L635.926 1783.22Z" fill="white" fill-opacity="0.2"/>
</g>
<g style="mix-blend-mode:overlay">
<path d="M635.926 1783.22L185.42 1859.96L186.091 1868.04L636.606 1791.29L635.926 1783.22Z" fill="white" fill-opacity="0.2"/>
</g>
<g style="mix-blend-mode:overlay">
<path d="M898.223 2020.16L447.716 2096.91L447.839 2100.33L898.346 2023.58L898.223 2020.16Z" fill="white" fill-opacity="0.2"/>
</g>
<g style="mix-blend-mode:overlay">
<path d="M898.223 2020.16L447.716 2096.91L447.839 2100.33L898.346 2023.58L898.223 2020.16Z" fill="white" fill-opacity="0.2"/>
</g>
<g style="mix-blend-mode:overlay">
<path d="M892.823 1643.17L186.498 1768.81L254.56 1836.15L960.884 1710.5C961.229 1699.35 892.823 1643.17 892.823 1643.17Z" fill="#11137D"/>
</g>
<g style="mix-blend-mode:overlay">
<path d="M1209.96 1408.71L407.522 1560.27L475.583 1627.6L1278.02 1476.05C1278.37 1464.89 1209.96 1408.71 1209.96 1408.71Z" fill="#11137D"/>
</g>
<g style="mix-blend-mode:overlay">
<path d="M590.632 1874.77L-47.4821 1954.05L-20.5397 2016.1L618.574 1902.42L590.632 1874.77Z" fill="#11137D"/>
</g>
<g style="mix-blend-mode:overlay">
<path d="M796.253 1937.45L157.139 2051.14L185.082 2078.78L824.196 1965.1L796.253 1937.45Z" fill="#11137D"/>
</g>
<g style="mix-blend-mode:overlay">
<path d="M1206.62 1699.09L567.523 1812.78L595.465 1840.42L1234.56 1726.74L1206.62 1699.09Z" fill="#11137D"/>
</g>
<g style="mix-blend-mode:overlay">
<path d="M1244.62 1552.34L605.523 1666.03L633.466 1674.55L1272.56 1560.86L1244.62 1552.34Z" fill="#11137D"/>
</g>
<g style="mix-blend-mode:overlay" opacity="0.5">
<path d="M279.621 1984.34L-365.484 2087.05L-331.533 2125.67L307.564 2011.99L279.621 1984.34Z" fill="#11137D"/>
</g>
<g style="mix-blend-mode:overlay">
<path d="M1317.17 1803.18L678.07 1916.86L706.012 1944.51L1345.11 1830.83L1317.17 1803.18Z" fill="#11137D"/>
</g>
<g style="mix-blend-mode:overlay">
<path d="M1048.68 1806.88L342.367 1932.52L492.001 2080.56L1198.32 1954.93C1198.66 1943.77 1048.68 1806.88 1048.68 1806.88Z" fill="#72008F"/>
</g>
</g>
<g style="mix-blend-mode:color-dodge" opacity="0.3">
<g style="mix-blend-mode:overlay">
<path d="M922.127 775.524L746.945 802.778L747.426 808.507L922.607 781.253L922.127 775.524Z" fill="white" fill-opacity="0.3"/>
</g>
<g style="mix-blend-mode:overlay">
<path d="M930.067 743.291L479.56 820.038L479.682 823.456L930.189 746.71L930.067 743.291Z" fill="white" fill-opacity="0.3"/>
</g>
<g style="mix-blend-mode:overlay">
<path d="M930.067 743.291L479.56 820.038L479.682 823.456L930.189 746.71L930.067 743.291Z" fill="white" fill-opacity="0.3"/>
</g>
<g style="mix-blend-mode:screen" opacity="0.48">
<path d="M917.822 792.663L211.507 918.299L361.142 1066.34L1067.46 940.71C1067.8 929.554 917.822 792.663 917.822 792.663Z" fill="#2B40CA" fill-opacity="0.8"/>
</g>
<g style="mix-blend-mode:overlay">
<path d="M930.135 1007.4L509.844 1082.02L511.302 1095.74L931.593 1021.12L930.135 1007.4Z" fill="white" fill-opacity="0.3"/>
</g>
<g style="mix-blend-mode:overlay">
<path d="M517.899 1058.31L343.203 1090.5L343.848 1096.2L518.543 1064.01L517.899 1058.31Z" fill="white" fill-opacity="0.3"/>
</g>
<g style="mix-blend-mode:overlay">
<path d="M565.926 829.219L115.419 905.966L116.091 914.044L566.606 837.289L565.926 829.219Z" fill="white" fill-opacity="0.3"/>
</g>
<g style="mix-blend-mode:overlay">
<path d="M565.926 829.219L115.419 905.966L116.091 914.044L566.606 837.289L565.926 829.219Z" fill="white" fill-opacity="0.3"/>
</g>
<g style="mix-blend-mode:overlay">
<path d="M828.223 1066.16L377.716 1142.91L377.839 1146.33L828.345 1069.58L828.223 1066.16Z" fill="white" fill-opacity="0.3"/>
</g>
<g style="mix-blend-mode:overlay">
<path d="M828.223 1066.16L377.716 1142.91L377.839 1146.33L828.345 1069.58L828.223 1066.16Z" fill="white" fill-opacity="0.3"/>
</g>
<g style="mix-blend-mode:overlay">
<path d="M822.822 689.165L116.498 814.809L184.559 882.148L890.884 756.504C891.229 745.348 822.822 689.165 822.822 689.165Z" fill="#2B40CA" fill-opacity="0.8"/>
</g>
<g style="mix-blend-mode:overlay">
<path d="M1139.96 454.71L337.521 606.265L405.583 673.604L1208.02 522.049C1208.37 510.893 1139.96 454.71 1139.96 454.71Z" fill="#2B40CA" fill-opacity="0.8"/>
</g>
<g style="mix-blend-mode:overlay">
<path d="M520.632 920.775L-117.482 1000.05L-90.5399 1062.11L548.574 948.422L520.632 920.775Z" fill="#2B40CA" fill-opacity="0.8"/>
</g>
<g style="mix-blend-mode:overlay">
<path d="M726.253 983.455L87.1388 1097.14L115.081 1124.78L754.196 1011.1L726.253 983.455Z" fill="#2B40CA" fill-opacity="0.8"/>
</g>
<g style="mix-blend-mode:overlay">
<path d="M1136.62 745.093L497.523 858.776L525.465 886.422L1164.56 772.739L1136.62 745.093Z" fill="#2B40CA" fill-opacity="0.8"/>
</g>
<g style="mix-blend-mode:overlay">
<path d="M1174.62 598.344L535.523 712.027L563.466 720.548L1202.56 606.865L1174.62 598.344Z" fill="#2B40CA" fill-opacity="0.8"/>
</g>
<g style="mix-blend-mode:overlay" opacity="0.5">
<path d="M209.621 1030.34L-435.484 1133.05L-401.534 1171.67L237.564 1057.99L209.621 1030.34Z" fill="#2B40CA" fill-opacity="0.8"/>
</g>
<g style="mix-blend-mode:overlay">
<path d="M978.682 852.882L272.366 978.517L422.001 1126.56L1128.32 1000.93C1128.66 989.772 978.682 852.882 978.682 852.882Z" fill="#2B40CA" fill-opacity="0.8"/>
</g>
</g>
<g style="mix-blend-mode:color-burn" opacity="0.2">
<g style="mix-blend-mode:overlay">
<path d="M2094.13 2244.52L1918.94 2271.78L1919.42 2277.51L2094.61 2250.25L2094.13 2244.52Z" fill="white"/>
</g>
<g style="mix-blend-mode:overlay">
<path d="M2102.07 2212.29L1651.56 2289.04L1651.68 2292.46L2102.19 2215.71L2102.07 2212.29Z" fill="white"/>
</g>
<g style="mix-blend-mode:overlay">
<path d="M2102.07 2212.29L1651.56 2289.04L1651.68 2292.46L2102.19 2215.71L2102.07 2212.29Z" fill="white"/>
</g>
<g style="mix-blend-mode:screen" opacity="0.48">
<path d="M2089.82 2261.66L1383.51 2387.3L1533.14 2535.34L2239.46 2409.71C2239.8 2398.55 2089.82 2261.66 2089.82 2261.66Z" fill="#F9C900"/>
</g>
<g style="mix-blend-mode:overlay">
<path d="M2102.13 2476.39L1681.84 2551.02L1683.3 2564.74L2103.59 2490.12L2102.13 2476.39Z" fill="white"/>
</g>
<g style="mix-blend-mode:overlay">
<path d="M1689.9 2527.31L1515.2 2559.49L1515.85 2565.19L1690.54 2533.01L1689.9 2527.31Z" fill="white"/>
</g>
<g style="mix-blend-mode:overlay">
<path d="M1737.93 2298.22L1287.42 2374.96L1288.09 2383.04L1738.61 2306.29L1737.93 2298.22Z" fill="white"/>
</g>
<g style="mix-blend-mode:overlay">
<path d="M1737.93 2298.22L1287.42 2374.96L1288.09 2383.04L1738.61 2306.29L1737.93 2298.22Z" fill="white"/>
</g>
<g style="mix-blend-mode:overlay">
<path d="M2000.22 2535.16L1549.72 2611.91L1549.84 2615.33L2000.34 2538.58L2000.22 2535.16Z" fill="white"/>
</g>
<g style="mix-blend-mode:overlay">
<path d="M2000.22 2535.16L1549.72 2611.91L1549.84 2615.33L2000.34 2538.58L2000.22 2535.16Z" fill="white"/>
</g>
<g style="mix-blend-mode:overlay">
<path d="M1994.82 2158.16L1288.5 2283.81L1356.56 2351.15L2062.88 2225.5C2063.23 2214.35 1994.82 2158.16 1994.82 2158.16Z" fill="#F9C900"/>
</g>
<g style="mix-blend-mode:overlay">
<path d="M2311.96 1923.71L1509.52 2075.26L1577.58 2142.6L2380.02 1991.05C2380.37 1979.89 2311.96 1923.71 2311.96 1923.71Z" fill="#F9C900"/>
</g>
<g style="mix-blend-mode:overlay">
<path d="M1692.63 2389.78L1054.52 2469.05L1081.46 2531.11L1720.57 2417.42L1692.63 2389.78Z" fill="#F9C900"/>
</g>
<g style="mix-blend-mode:overlay">
<path d="M1898.25 2452.46L1259.14 2566.14L1287.08 2593.79L1926.19 2480.1L1898.25 2452.46Z" fill="#F9C900"/>
</g>
<g style="mix-blend-mode:overlay">
<path d="M2308.62 2214.09L1669.52 2327.77L1697.46 2355.42L2336.56 2241.74L2308.62 2214.09Z" fill="#F9C900"/>
</g>
<g style="mix-blend-mode:overlay">
<path d="M2346.62 2067.34L1707.52 2181.03L1735.46 2189.55L2374.56 2075.86L2346.62 2067.34Z" fill="#F9C900"/>
</g>
<g style="mix-blend-mode:overlay" opacity="0.5">
<path d="M1381.62 2499.34L736.515 2602.05L770.466 2640.67L1409.56 2526.99L1381.62 2499.34Z" fill="#F9C900"/>
</g>
<g style="mix-blend-mode:overlay">
<path d="M2419.17 2318.18L1780.07 2431.86L1808.01 2459.51L2447.11 2345.83L2419.17 2318.18Z" fill="#F9C900"/>
</g>
<g style="mix-blend-mode:overlay">
<path d="M2150.68 2321.88L1444.37 2447.52L1594 2595.56L2300.32 2469.93C2300.66 2458.77 2150.68 2321.88 2150.68 2321.88Z" fill="#DCBD3A"/>
</g>
</g>
<g style="mix-blend-mode:saturation" opacity="0.3">
<g style="mix-blend-mode:overlay">
<path d="M2516.13 415.523L2340.95 442.777L2341.43 448.506L2516.61 421.252L2516.13 415.523Z" fill="white"/>
</g>
<g style="mix-blend-mode:overlay">
<path d="M2524.07 383.291L2073.56 460.038L2073.68 463.456L2524.19 386.71L2524.07 383.291Z" fill="white"/>
</g>
<g style="mix-blend-mode:overlay">
<path d="M2524.07 383.291L2073.56 460.038L2073.68 463.456L2524.19 386.71L2524.07 383.291Z" fill="white"/>
</g>
<g style="mix-blend-mode:screen" opacity="0.48">
<path d="M2511.82 432.663L1805.51 558.299L1955.14 706.345L2661.46 580.71C2661.8 569.554 2511.82 432.663 2511.82 432.663Z" fill="#F9C900"/>
</g>
<g style="mix-blend-mode:overlay">
<path d="M2524.13 647.395L2103.84 722.016L2105.3 735.742L2525.59 661.121L2524.13 647.395Z" fill="white"/>
</g>
<g style="mix-blend-mode:overlay">
<path d="M2111.9 698.308L1937.2 730.494L1937.85 736.195L2112.54 704.008L2111.9 698.308Z" fill="white"/>
</g>
<g style="mix-blend-mode:overlay">
<path d="M2159.93 469.218L1709.42 545.965L1710.09 554.043L2160.61 477.288L2159.93 469.218Z" fill="white"/>
</g>
<g style="mix-blend-mode:overlay">
<path d="M2159.93 469.218L1709.42 545.965L1710.09 554.043L2160.61 477.288L2159.93 469.218Z" fill="white"/>
</g>
<g style="mix-blend-mode:overlay">
<path d="M2422.22 706.164L1971.72 782.911L1971.84 786.329L2422.35 709.583L2422.22 706.164Z" fill="white"/>
</g>
<g style="mix-blend-mode:overlay">
<path d="M2422.22 706.164L1971.72 782.911L1971.84 786.329L2422.35 709.583L2422.22 706.164Z" fill="white"/>
</g>
<g style="mix-blend-mode:overlay">
<path d="M2416.82 329.165L1710.5 454.809L1778.56 522.148L2484.88 396.504C2485.23 385.348 2416.82 329.165 2416.82 329.165Z" fill="#F9C900"/>
</g>
<g style="mix-blend-mode:overlay">
<path d="M2733.96 94.7101L1931.52 246.265L1999.58 313.604L2802.02 162.049C2802.37 150.893 2733.96 94.7101 2733.96 94.7101Z" fill="#F9C900"/>
</g>
<g style="mix-blend-mode:overlay">
<path d="M2114.63 560.775L1476.52 640.048L1503.46 702.105L2142.57 588.422L2114.63 560.775Z" fill="#F9C900"/>
</g>
<g style="mix-blend-mode:overlay">
<path d="M2320.25 623.455L1681.14 737.139L1709.08 764.785L2348.2 651.101L2320.25 623.455Z" fill="#F9C900"/>
</g>
<g style="mix-blend-mode:overlay">
<path d="M2730.62 385.092L2091.52 498.775L2119.47 526.421L2758.56 412.738L2730.62 385.092Z" fill="#F9C900"/>
</g>
<g style="mix-blend-mode:overlay">
<path d="M2768.62 238.344L2129.52 352.027L2157.47 360.548L2796.56 246.865L2768.62 238.344Z" fill="#F9C900"/>
</g>
<g style="mix-blend-mode:overlay" opacity="0.5">
<path d="M1803.62 670.344L1158.52 773.048L1192.47 811.673L1831.56 697.99L1803.62 670.344Z" fill="#F9C900"/>
</g>
<g style="mix-blend-mode:overlay">
<path d="M2841.17 489.18L2202.07 602.863L2230.01 630.509L2869.11 516.826L2841.17 489.18Z" fill="#F9C900"/>
</g>
<g style="mix-blend-mode:overlay">
<path d="M2572.68 492.882L1866.37 618.517L2016 766.564L2722.32 640.928C2722.66 629.772 2572.68 492.882 2572.68 492.882Z" fill="#DCBD3A"/>
</g>
</g>
</g>
<defs>
<filter id="filter0_f_1_1147" x="423" y="257.999" width="919" height="919" filterUnits="userSpaceOnUse" color-interpolation-filters="sRGB">
<feFlood flood-opacity="0" result="BackgroundImageFix"/>
<feBlend mode="normal" in="SourceGraphic" in2="BackgroundImageFix" result="shape"/>
<feGaussianBlur stdDeviation="122" result="effect1_foregroundBlur_1_1147"/>
</filter>
<filter id="filter1_f_1_1147" x="1810" y="776.999" width="703" height="703" filterUnits="userSpaceOnUse" color-interpolation-filters="sRGB">
<feFlood flood-opacity="0" result="BackgroundImageFix"/>
<feBlend mode="normal" in="SourceGraphic" in2="BackgroundImageFix" result="shape"/>
<feGaussianBlur stdDeviation="122" result="effect1_foregroundBlur_1_1147"/>
</filter>
<filter id="filter2_f_1_1147" x="1660" y="167.999" width="939" height="939" filterUnits="userSpaceOnUse" color-interpolation-filters="sRGB">
<feFlood flood-opacity="0" result="BackgroundImageFix"/>
<feBlend mode="normal" in="SourceGraphic" in2="BackgroundImageFix" result="shape"/>
<feGaussianBlur stdDeviation="122" result="effect1_foregroundBlur_1_1147"/>
</filter>
<linearGradient id="paint0_linear_1_1147" x1="1521.03" y1="3880.95" x2="734.946" y2="3687.44" gradientUnits="userSpaceOnUse">
<stop stop-color="#005B7F"/>
<stop offset="1" stop-color="#00233F"/>
</linearGradient>
<linearGradient id="paint1_linear_1_1147" x1="1742.44" y1="3331.42" x2="1742.44" y2="3083.39" gradientUnits="userSpaceOnUse">
<stop stop-color="#005B7F"/>
<stop offset="1" stop-color="#00233F"/>
</linearGradient>
<linearGradient id="paint2_linear_1_1147" x1="1009.81" y1="3178.61" x2="926.702" y2="3295.76" gradientUnits="userSpaceOnUse">
<stop stop-color="#005B7F"/>
<stop offset="1" stop-color="#00233F"/>
</linearGradient>
<linearGradient id="paint3_linear_1_1147" x1="2168.52" y1="546.642" x2="2200.24" y2="749.97" gradientUnits="userSpaceOnUse">
<stop stop-color="#005B7F"/>
<stop offset="1" stop-color="#00233F"/>
</linearGradient>
<linearGradient id="paint4_linear_1_1147" x1="1521.03" y1="822.849" x2="734.946" y2="629.336" gradientUnits="userSpaceOnUse">
<stop stop-color="#005B7F"/>
<stop offset="1" stop-color="#00233F"/>
</linearGradient>
<linearGradient id="paint5_linear_1_1147" x1="1742.44" y1="273.321" x2="1742.44" y2="25.2867" gradientUnits="userSpaceOnUse">
<stop stop-color="#005B7F"/>
<stop offset="1" stop-color="#00233F"/>
</linearGradient>
<linearGradient id="paint6_linear_1_1147" x1="1009.81" y1="120.511" x2="926.702" y2="237.662" gradientUnits="userSpaceOnUse">
<stop stop-color="#005B7F"/>
<stop offset="1" stop-color="#00233F"/>
</linearGradient>
<linearGradient id="paint7_linear_1_1147" x1="1764.44" y1="613.865" x2="1835.05" y2="699.406" gradientUnits="userSpaceOnUse">
<stop stop-color="#005B7F"/>
<stop offset="1" stop-color="#00233F"/>
</linearGradient>
<linearGradient id="paint8_linear_1_1147" x1="931.377" y1="701.854" x2="888.574" y2="701.854" gradientUnits="userSpaceOnUse">
<stop stop-color="white"/>
<stop offset="1" stop-color="#00233F"/>
</linearGradient>
<linearGradient id="paint9_linear_1_1147" x1="910.002" y1="1825.79" x2="867.199" y2="1825.79" gradientUnits="userSpaceOnUse">
<stop stop-color="white"/>
<stop offset="1" stop-color="#00233F"/>
</linearGradient>
<linearGradient id="paint10_linear_1_1147" x1="888.627" y1="1825.79" x2="845.824" y2="1825.79" gradientUnits="userSpaceOnUse">
<stop stop-color="white"/>
<stop offset="1" stop-color="#00233F"/>
</linearGradient>
<linearGradient id="paint11_linear_1_1147" x1="867.252" y1="1825.79" x2="824.449" y2="1825.79" gradientUnits="userSpaceOnUse">
<stop stop-color="white"/>
<stop offset="1" stop-color="#00233F"/>
</linearGradient>
<linearGradient id="paint12_linear_1_1147" x1="845.877" y1="1825.79" x2="803.074" y2="1825.79" gradientUnits="userSpaceOnUse">
<stop stop-color="white"/>
<stop offset="1" stop-color="#00233F"/>
</linearGradient>
<linearGradient id="paint13_linear_1_1147" x1="824.502" y1="1825.79" x2="781.699" y2="1825.79" gradientUnits="userSpaceOnUse">
<stop stop-color="white"/>
<stop offset="1" stop-color="#00233F"/>
</linearGradient>
<linearGradient id="paint14_linear_1_1147" x1="803.127" y1="1825.79" x2="760.324" y2="1825.79" gradientUnits="userSpaceOnUse">
<stop stop-color="white"/>
<stop offset="1" stop-color="#00233F"/>
</linearGradient>
<linearGradient id="paint15_linear_1_1147" x1="781.752" y1="1825.79" x2="738.949" y2="1825.79" gradientUnits="userSpaceOnUse">
<stop stop-color="white"/>
<stop offset="1" stop-color="#00233F"/>
</linearGradient>
<linearGradient id="paint16_linear_1_1147" x1="2168.52" y1="2585.38" x2="2200.24" y2="2788.7" gradientUnits="userSpaceOnUse">
<stop stop-color="#005B7F"/>
<stop offset="1" stop-color="#00233F"/>
</linearGradient>
<linearGradient id="paint17_linear_1_1147" x1="1521.03" y1="2861.58" x2="734.946" y2="2668.07" gradientUnits="userSpaceOnUse">
<stop stop-color="#005B7F"/>
<stop offset="1" stop-color="#00233F"/>
</linearGradient>
<linearGradient id="paint18_linear_1_1147" x1="1742.44" y1="2312.06" x2="1742.44" y2="2064.02" gradientUnits="userSpaceOnUse">
<stop stop-color="#005B7F"/>
<stop offset="1" stop-color="#00233F"/>
</linearGradient>
<linearGradient id="paint19_linear_1_1147" x1="1009.81" y1="2159.25" x2="926.702" y2="2276.4" gradientUnits="userSpaceOnUse">
<stop stop-color="#005B7F"/>
<stop offset="1" stop-color="#00233F"/>
</linearGradient>
<linearGradient id="paint20_linear_1_1147" x1="1764.44" y1="2652.6" x2="1835.05" y2="2738.14" gradientUnits="userSpaceOnUse">
<stop stop-color="#005B7F"/>
<stop offset="1" stop-color="#00233F"/>
</linearGradient>
<linearGradient id="paint21_linear_1_1147" x1="931.377" y1="2740.59" x2="888.574" y2="2740.59" gradientUnits="userSpaceOnUse">
<stop stop-color="white"/>
<stop offset="1" stop-color="#00233F"/>
</linearGradient>
<linearGradient id="paint22_linear_1_1147" x1="910.002" y1="3864.52" x2="867.199" y2="3864.52" gradientUnits="userSpaceOnUse">
<stop stop-color="white"/>
<stop offset="1" stop-color="#00233F"/>
</linearGradient>
<linearGradient id="paint23_linear_1_1147" x1="888.627" y1="3864.52" x2="845.824" y2="3864.52" gradientUnits="userSpaceOnUse">
<stop stop-color="white"/>
<stop offset="1" stop-color="#00233F"/>
</linearGradient>
<linearGradient id="paint24_linear_1_1147" x1="867.252" y1="3864.52" x2="824.449" y2="3864.52" gradientUnits="userSpaceOnUse">
<stop stop-color="white"/>
<stop offset="1" stop-color="#00233F"/>
</linearGradient>
<linearGradient id="paint25_linear_1_1147" x1="845.877" y1="3864.52" x2="803.074" y2="3864.52" gradientUnits="userSpaceOnUse">
<stop stop-color="white"/>
<stop offset="1" stop-color="#00233F"/>
</linearGradient>
<linearGradient id="paint26_linear_1_1147" x1="824.502" y1="3864.52" x2="781.699" y2="3864.52" gradientUnits="userSpaceOnUse">
<stop stop-color="white"/>
<stop offset="1" stop-color="#00233F"/>
</linearGradient>
<linearGradient id="paint27_linear_1_1147" x1="803.127" y1="3864.52" x2="760.324" y2="3864.52" gradientUnits="userSpaceOnUse">
<stop stop-color="white"/>
<stop offset="1" stop-color="#00233F"/>
</linearGradient>
<linearGradient id="paint28_linear_1_1147" x1="781.752" y1="3864.52" x2="738.949" y2="3864.52" gradientUnits="userSpaceOnUse">
<stop stop-color="white"/>
<stop offset="1" stop-color="#00233F"/>
</linearGradient>
<linearGradient id="paint29_linear_1_1147" x1="2168.52" y1="1566.01" x2="2200.24" y2="1769.34" gradientUnits="userSpaceOnUse">
<stop stop-color="#005B7F"/>
<stop offset="1" stop-color="#00233F"/>
</linearGradient>
<linearGradient id="paint30_linear_1_1147" x1="1521.03" y1="1842.22" x2="734.946" y2="1648.7" gradientUnits="userSpaceOnUse">
<stop stop-color="#005B7F"/>
<stop offset="1" stop-color="#00233F"/>
</linearGradient>
<linearGradient id="paint31_linear_1_1147" x1="1742.44" y1="1292.69" x2="1742.44" y2="1044.65" gradientUnits="userSpaceOnUse">
<stop stop-color="#005B7F"/>
<stop offset="1" stop-color="#00233F"/>
</linearGradient>
<linearGradient id="paint32_linear_1_1147" x1="1009.81" y1="1139.88" x2="926.702" y2="1257.03" gradientUnits="userSpaceOnUse">
<stop stop-color="#005B7F"/>
<stop offset="1" stop-color="#00233F"/>
</linearGradient>
<linearGradient id="paint33_linear_1_1147" x1="1764.44" y1="1633.23" x2="1835.05" y2="1718.77" gradientUnits="userSpaceOnUse">
<stop stop-color="#005B7F"/>
<stop offset="1" stop-color="#00233F"/>
</linearGradient>
<linearGradient id="paint34_linear_1_1147" x1="931.377" y1="1721.22" x2="888.574" y2="1721.22" gradientUnits="userSpaceOnUse">
<stop stop-color="white"/>
<stop offset="1" stop-color="#00233F"/>
</linearGradient>
<linearGradient id="paint35_linear_1_1147" x1="910.002" y1="2845.16" x2="867.199" y2="2845.16" gradientUnits="userSpaceOnUse">
<stop stop-color="white"/>
<stop offset="1" stop-color="#00233F"/>
</linearGradient>
<linearGradient id="paint36_linear_1_1147" x1="888.627" y1="2845.16" x2="845.824" y2="2845.16" gradientUnits="userSpaceOnUse">
<stop stop-color="white"/>
<stop offset="1" stop-color="#00233F"/>
</linearGradient>
<linearGradient id="paint37_linear_1_1147" x1="867.252" y1="2845.16" x2="824.449" y2="2845.16" gradientUnits="userSpaceOnUse">
<stop stop-color="white"/>
<stop offset="1" stop-color="#00233F"/>
</linearGradient>
<linearGradient id="paint38_linear_1_1147" x1="845.877" y1="2845.16" x2="803.074" y2="2845.16" gradientUnits="userSpaceOnUse">
<stop stop-color="white"/>
<stop offset="1" stop-color="#00233F"/>
</linearGradient>
<linearGradient id="paint39_linear_1_1147" x1="824.502" y1="2845.16" x2="781.699" y2="2845.16" gradientUnits="userSpaceOnUse">
<stop stop-color="white"/>
<stop offset="1" stop-color="#00233F"/>
</linearGradient>
<linearGradient id="paint40_linear_1_1147" x1="803.127" y1="2845.16" x2="760.324" y2="2845.16" gradientUnits="userSpaceOnUse">
<stop stop-color="white"/>
<stop offset="1" stop-color="#00233F"/>
</linearGradient>
<linearGradient id="paint41_linear_1_1147" x1="781.752" y1="2845.16" x2="738.949" y2="2845.16" gradientUnits="userSpaceOnUse">
<stop stop-color="white"/>
<stop offset="1" stop-color="#00233F"/>
</linearGradient>
<clipPath id="clip0_1_1147">
<rect width="3000" height="3333" fill="white"/>
</clipPath>
</defs>
</svg>
