<svg width="36" height="36" viewBox="0 0 36 36" fill="none" xmlns="http://www.w3.org/2000/svg">
<circle cx="18" cy="18" r="18" fill="#434B76"/>
<g clip-path="url(#clip0_1_1571)">
<path d="M18 11.4406C20.1375 11.4406 20.3906 11.45 21.2312 11.4875C22.0125 11.5219 22.4344 11.6531 22.7156 11.7625C23.0875 11.9062 23.3562 12.0812 23.6344 12.3594C23.9156 12.6406 24.0875 12.9062 24.2312 13.2781C24.3406 13.5594 24.4719 13.9844 24.5063 14.7625C24.5437 15.6062 24.5531 15.8594 24.5531 17.9937C24.5531 20.1312 24.5437 20.3844 24.5063 21.225C24.4719 22.0063 24.3406 22.4281 24.2312 22.7094C24.0875 23.0813 23.9125 23.35 23.6344 23.6281C23.3531 23.9094 23.0875 24.0813 22.7156 24.225C22.4344 24.3344 22.0094 24.4656 21.2312 24.5C20.3875 24.5375 20.1344 24.5469 18 24.5469C15.8625 24.5469 15.6094 24.5375 14.7688 24.5C13.9875 24.4656 13.5656 24.3344 13.2844 24.225C12.9125 24.0813 12.6437 23.9062 12.3656 23.6281C12.0844 23.3469 11.9125 23.0813 11.7687 22.7094C11.6594 22.4281 11.5281 22.0031 11.4937 21.225C11.4562 20.3813 11.4469 20.1281 11.4469 17.9937C11.4469 15.8562 11.4562 15.6031 11.4937 14.7625C11.5281 13.9812 11.6594 13.5594 11.7687 13.2781C11.9125 12.9062 12.0875 12.6375 12.3656 12.3594C12.6469 12.0781 12.9125 11.9062 13.2844 11.7625C13.5656 11.6531 13.9906 11.5219 14.7688 11.4875C15.6094 11.45 15.8625 11.4406 18 11.4406ZM18 10C15.8281 10 15.5563 10.0094 14.7031 10.0469C13.8531 10.0844 13.2687 10.2219 12.7625 10.4187C12.2344 10.625 11.7875 10.8969 11.3438 11.3437C10.8969 11.7875 10.625 12.2344 10.4187 12.7594C10.2219 13.2687 10.0844 13.85 10.0469 14.7C10.0094 15.5562 10 15.8281 10 18C10 20.1719 10.0094 20.4437 10.0469 21.2969C10.0844 22.1469 10.2219 22.7312 10.4187 23.2375C10.625 23.7656 10.8969 24.2125 11.3438 24.6562C11.7875 25.1 12.2344 25.375 12.7594 25.5781C13.2688 25.775 13.85 25.9125 14.7 25.95C15.5531 25.9875 15.825 25.9969 17.9969 25.9969C20.1687 25.9969 20.4406 25.9875 21.2937 25.95C22.1438 25.9125 22.7281 25.775 23.2344 25.5781C23.7594 25.375 24.2062 25.1 24.65 24.6562C25.0937 24.2125 25.3687 23.7656 25.5719 23.2406C25.7687 22.7312 25.9062 22.15 25.9438 21.3C25.9812 20.4469 25.9906 20.175 25.9906 18.0031C25.9906 15.8313 25.9812 15.5594 25.9438 14.7062C25.9062 13.8562 25.7687 13.2719 25.5719 12.7656C25.375 12.2344 25.1031 11.7875 24.6562 11.3437C24.2125 10.9 23.7656 10.625 23.2406 10.4219C22.7312 10.225 22.15 10.0875 21.3 10.05C20.4437 10.0094 20.1719 10 18 10Z" fill="white"/>
<path d="M18 13.8906C15.7313 13.8906 13.8906 15.7313 13.8906 18C13.8906 20.2688 15.7313 22.1094 18 22.1094C20.2688 22.1094 22.1094 20.2688 22.1094 18C22.1094 15.7313 20.2688 13.8906 18 13.8906ZM18 20.6656C16.5281 20.6656 15.3344 19.4719 15.3344 18C15.3344 16.5281 16.5281 15.3344 18 15.3344C19.4719 15.3344 20.6656 16.5281 20.6656 18C20.6656 19.4719 19.4719 20.6656 18 20.6656Z" fill="white"/>
<path d="M23.2312 13.7328C23.2312 14.2641 22.8 14.6922 22.2719 14.6922C21.7406 14.6922 21.3125 14.2609 21.3125 13.7328C21.3125 13.2016 21.7438 12.7734 22.2719 12.7734C22.8 12.7734 23.2312 13.2047 23.2312 13.7328Z" fill="white"/>
</g>
<defs>
<clipPath id="clip0_1_1571">
<rect width="16" height="16" fill="white" transform="translate(10 10)"/>
</clipPath>
</defs>
</svg>
