<svg width="37" height="37" viewBox="0 0 37 37" fill="none" xmlns="http://www.w3.org/2000/svg">
<g clip-path="url(#clip0_1_1020)">
<g filter="url(#filter0_d_1_1020)">
<path d="M12.3523 24.6479H23.5497C30.468 24.6479 31.5202 20.3017 32.7963 13.9627C33.1644 12.1344 33.3485 11.2202 32.9059 10.6111C32.4633 10.0021 31.6149 10.0021 29.9181 10.0021H9.26893" stroke="#FAF8F2" stroke-width="1.83333" stroke-linecap="round"/>
<path d="M12.3522 24.6479L8.31107 5.40008C7.96792 4.02748 6.73464 3.06457 5.3198 3.06457H3.87303" stroke="#FAF8F2" stroke-width="1.83333" stroke-linecap="round"/>
<path d="M13.7089 24.6479H13.0746C10.9728 24.6479 9.26893 26.4228 9.26893 28.6122C9.26893 28.9771 9.55291 29.2729 9.90322 29.2729H26.9981" stroke="#FAF8F2" stroke-width="1.83333" stroke-linecap="round" stroke-linejoin="round"/>
<ellipse cx="16.2064" cy="31.5854" rx="2.3125" ry="2.3125" stroke="#FAF8F2" stroke-width="1.83333"/>
<ellipse cx="26.998" cy="31.5854" rx="2.3125" ry="2.3125" stroke="#FAF8F2" stroke-width="1.83333"/>
</g>
</g>
<defs>
<filter id="filter0_d_1_1020" x="-7.14284" y="-5.93316" width="51.3235" height="52.8652" filterUnits="userSpaceOnUse" color-interpolation-filters="sRGB">
<feFlood flood-opacity="0" result="BackgroundImageFix"/>
<feColorMatrix in="SourceAlpha" type="matrix" values="0 0 0 0 0 0 0 0 0 0 0 0 0 0 0 0 0 0 127 0" result="hardAlpha"/>
<feOffset dy="2"/>
<feGaussianBlur stdDeviation="5"/>
<feComposite in2="hardAlpha" operator="out"/>
<feColorMatrix type="matrix" values="0 0 0 0 0 0 0 0 0 0 0 0 0 0 0 0 0 0 0.25 0"/>
<feBlend mode="normal" in2="BackgroundImageFix" result="effect1_dropShadow_1_1020"/>
<feBlend mode="normal" in="SourceGraphic" in2="effect1_dropShadow_1_1020" result="shape"/>
</filter>
<clipPath id="clip0_1_1020">
<rect width="36.6667" height="36.6667" fill="white" transform="scale(1.00909)"/>
</clipPath>
</defs>
</svg>
